<svg width="12" height="12" viewBox="0 0 12 12" fill="none" xmlns="http://www.w3.org/2000/svg">
<path fill-rule="evenodd" clip-rule="evenodd" d="M6.41259 0.337583C6.3032 0.228225 6.15485 0.166791 6.00017 0.166791C5.84549 0.166791 5.69714 0.228225 5.58775 0.337583L1.50442 4.42092L0.337753 5.58758C0.282038 5.64139 0.237599 5.70576 0.207027 5.77693C0.176455 5.8481 0.160363 5.92464 0.15969 6.0021C0.159017 6.07955 0.173776 6.15637 0.203107 6.22806C0.232437 6.29975 0.275752 6.36488 0.330522 6.41965C0.385293 6.47442 0.450423 6.51773 0.522113 6.54706C0.593802 6.57639 0.670616 6.59115 0.74807 6.59048C0.825525 6.58981 0.90207 6.57371 0.973239 6.54314C1.04441 6.51257 1.10878 6.46813 1.16259 6.41242L1.3335 6.2415V10.0833C1.3335 10.5475 1.51788 10.9926 1.84607 11.3208C2.17425 11.649 2.61937 11.8333 3.0835 11.8333H8.91684C9.38097 11.8333 9.82609 11.649 10.1543 11.3208C10.4825 10.9926 10.6668 10.5475 10.6668 10.0833V6.2415L10.8378 6.41242C10.9478 6.51867 11.0951 6.57747 11.2481 6.57614C11.401 6.57481 11.5473 6.51346 11.6555 6.40531C11.7636 6.29716 11.825 6.15085 11.8263 5.9979C11.8276 5.84495 11.7688 5.6976 11.6626 5.58758L6.41259 0.337583Z" fill="#3264FF"/>
</svg>
