<svg width="28" height="40" viewBox="0 0 28 40" fill="none" xmlns="http://www.w3.org/2000/svg">
<path d="M28 14C28 12.1615 27.6379 10.341 26.9343 8.64243C26.2307 6.94387 25.1995 5.40053 23.8995 4.1005C22.5995 2.80048 21.0561 1.76925 19.3576 1.06569C17.659 0.362121 15.8385 0 14 0C12.1615 0 10.341 0.362121 8.64243 1.06569C6.94387 1.76925 5.40053 2.80048 4.1005 4.1005C2.80048 5.40053 1.76925 6.94387 1.06569 8.64243C0.36212 10.341 -2.73959e-08 12.1615 0 14C0 16.774 0.818 19.354 2.21 21.53H2.194L14 40L25.806 21.53H25.792C27.2337 19.2832 28.0001 16.6696 28 14ZM14 20C12.4087 20 10.8826 19.3679 9.75736 18.2426C8.63214 17.1174 8 15.5913 8 14C8 12.4087 8.63214 10.8826 9.75736 9.75736C10.8826 8.63214 12.4087 8 14 8C15.5913 8 17.1174 8.63214 18.2426 9.75736C19.3679 10.8826 20 12.4087 20 14C20 15.5913 19.3679 17.1174 18.2426 18.2426C17.1174 19.3679 15.5913 20 14 20Z" fill="#3264FF"/>
</svg>
