<svg width="15" height="9" viewBox="0 0 15 9" fill="none" xmlns="http://www.w3.org/2000/svg">
<path d="M3.54167 2.12499V0.541659H14.625V2.12499H3.54167ZM3.54167 5.29166V3.70833H14.625V5.29166H3.54167ZM3.54167 8.45833V6.87499H14.625V8.45833H3.54167ZM1.16667 2.12499C0.942364 2.12499 0.754211 2.04899 0.602211 1.89699C0.450211 1.74499 0.374475 1.5571 0.375003 1.33333C0.375003 1.10902 0.451003 0.920868 0.603003 0.768868C0.755003 0.616868 0.942892 0.541131 1.16667 0.541659C1.39097 0.541659 1.57913 0.617659 1.73113 0.769659C1.88313 0.921659 1.95886 1.10955 1.95834 1.33333C1.95834 1.55763 1.88234 1.74578 1.73034 1.89778C1.57834 2.04978 1.39045 2.12552 1.16667 2.12499ZM1.16667 5.29166C0.942364 5.29166 0.754211 5.21566 0.602211 5.06366C0.450211 4.91166 0.374475 4.72377 0.375003 4.49999C0.375003 4.27569 0.451003 4.08753 0.603003 3.93553C0.755003 3.78353 0.942892 3.7078 1.16667 3.70833C1.39097 3.70833 1.57913 3.78433 1.73113 3.93633C1.88313 4.08833 1.95886 4.27621 1.95834 4.49999C1.95834 4.7243 1.88234 4.91245 1.73034 5.06445C1.57834 5.21645 1.39045 5.29219 1.16667 5.29166ZM1.16667 8.45833C0.942364 8.45833 0.754211 8.38233 0.602211 8.23033C0.450211 8.07833 0.374475 7.89044 0.375003 7.66666C0.375003 7.44235 0.451003 7.2542 0.603003 7.1022C0.755003 6.9502 0.942892 6.87446 1.16667 6.87499C1.39097 6.87499 1.57913 6.95099 1.73113 7.10299C1.88313 7.25499 1.95886 7.44288 1.95834 7.66666C1.95834 7.89096 1.88234 8.07912 1.73034 8.23112C1.57834 8.38312 1.39045 8.45885 1.16667 8.45833Z" fill="white"/>
</svg>
