<svg width="10" height="12" viewBox="0 0 10 12" fill="none" xmlns="http://www.w3.org/2000/svg">
<path fill-rule="evenodd" clip-rule="evenodd" d="M5.25 9.91667C5.40471 9.91667 5.55308 9.97813 5.66248 10.0875C5.77188 10.1969 5.83333 10.3453 5.83333 10.5V11.0833C5.83333 11.238 5.77188 11.3864 5.66248 11.4958C5.55308 11.6052 5.40471 11.6667 5.25 11.6667H4.08333C3.92862 11.6667 3.78025 11.6052 3.67085 11.4958C3.56146 11.3864 3.5 11.238 3.5 11.0833V10.5C3.5 10.3453 3.56146 10.1969 3.67085 10.0875C3.78025 9.97813 3.92862 9.91667 4.08333 9.91667H5.25ZM4.66667 0C5.90434 0 7.09133 0.491665 7.9665 1.36684C8.84167 2.242 9.33333 3.42899 9.33333 4.66667C9.33333 6.33267 8.49858 7.64517 7.54017 8.52367C7.09522 8.93324 6.59294 9.27576 6.04917 9.54042C5.572 9.76908 5.08083 9.91667 4.66667 9.91667L4.52608 9.91083C4.14342 9.88283 3.70825 9.74342 3.28417 9.54042C2.74039 9.27576 2.23811 8.93324 1.79317 8.52367C0.83475 7.64517 0 6.33267 0 4.66667C0 3.42899 0.491665 2.242 1.36684 1.36684C2.242 0.491665 3.42899 0 4.66667 0ZM4.66667 1.645C4.27992 2.33917 3.79167 3.50467 3.79167 4.95833C3.79167 6.412 4.27992 7.5775 4.66667 8.27225C5.05342 7.57808 5.54167 6.412 5.54167 4.95892C5.54167 3.50467 5.05342 2.33917 4.66667 1.64442V1.645ZM3.493 1.3685C2.81228 1.61098 2.22327 2.05814 1.80676 2.64864C1.39026 3.23914 1.16667 3.94405 1.16667 4.66667C1.16667 5.91733 1.79025 6.93817 2.58183 7.66383C2.81872 7.881 3.07511 8.07588 3.34775 8.246C2.87531 7.21413 2.62889 6.0932 2.625 4.95833C2.625 3.44167 3.07417 2.19917 3.493 1.3685ZM5.84033 1.3685C6.25917 2.19858 6.70833 3.44167 6.70833 4.95833C6.70833 6.3 6.35658 7.42817 5.985 8.246C6.25789 8.07597 6.51448 7.88109 6.7515 7.66383C7.54308 6.93817 8.16667 5.91733 8.16667 4.66667C8.16667 3.94405 7.94308 3.23914 7.52657 2.64864C7.11006 2.05814 6.52105 1.61098 5.84033 1.3685Z" fill="white"/>
</svg>
