<svg xmlns="http://www.w3.org/2000/svg" width="27" height="27" fill="#3264FF"><path stroke="#3264FF" stroke-linecap="round" stroke-linejoin="round" stroke-width="2" d="m11.597 15.403 5.451-5.451m5.576-3.326-4.601 14.956c-.413 1.341-.62 2.011-.976 2.233a1.122 1.122 0 0 1-1.026.086c-.388-.161-.702-.788-1.33-2.043l-2.913-5.83a2.364 2.364 0 0 0-.218-.385 1.125 1.125 0 0 0-.202-.204 2.288 2.288 0 0 0-.372-.209l-5.843-2.923c-1.254-.627-1.882-.941-2.042-1.328a1.125 1.125 0 0 1 .085-1.027c.222-.356.892-.563 2.233-.976l14.957-4.6c1.054-.326 1.58-.488 1.937-.356a1.126 1.126 0 0 1 .669.668c.13.355-.032.882-.356 1.935v.002l-.002.001Z"/></svg>