<svg width="24" height="23" viewBox="0 0 24 23" fill="none" xmlns="http://www.w3.org/2000/svg">
<path d="M12.0002 0.25C12.3096 0.25 12.6063 0.368526 12.8251 0.579505C13.0439 0.790483 13.1668 1.07663 13.1668 1.375V1.43688C15.5338 1.69271 17.7404 2.71664 19.4246 4.3407C21.1088 5.96476 22.1707 8.09253 22.436 10.375H22.5002C22.8096 10.375 23.1063 10.4935 23.3251 10.7045C23.5439 10.9155 23.6668 11.2016 23.6668 11.5C23.6668 11.7984 23.5439 12.0845 23.3251 12.2955C23.1063 12.5065 22.8096 12.625 22.5002 12.625H22.436C22.1707 14.9075 21.1088 17.0352 19.4246 18.6593C17.7404 20.2834 15.5338 21.3073 13.1668 21.5631V21.625C13.1668 21.9234 13.0439 22.2095 12.8251 22.4205C12.6063 22.6315 12.3096 22.75 12.0002 22.75C11.6907 22.75 11.394 22.6315 11.1752 22.4205C10.9564 22.2095 10.8335 21.9234 10.8335 21.625V21.5631C8.46649 21.3073 6.25991 20.2834 4.5757 18.6593C2.89149 17.0352 1.82964 14.9075 1.56433 12.625H1.50016C1.19074 12.625 0.893997 12.5065 0.675205 12.2955C0.456412 12.0845 0.333496 11.7984 0.333496 11.5C0.333496 11.2016 0.456412 10.9155 0.675205 10.7045C0.893997 10.4935 1.19074 10.375 1.50016 10.375H1.56433C1.82964 8.09253 2.89149 5.96476 4.5757 4.3407C6.25991 2.71664 8.46649 1.69271 10.8335 1.43688V1.375C10.8335 1.07663 10.9564 0.790483 11.1752 0.579505C11.394 0.368526 11.6907 0.25 12.0002 0.25ZM13.1668 3.70375V4.75C13.1665 5.03674 13.0526 5.31254 12.8485 5.52104C12.6444 5.72954 12.3654 5.85501 12.0685 5.87182C11.7717 5.88862 11.4794 5.79549 11.2514 5.61145C11.0233 5.42741 10.8768 5.16636 10.8417 4.88163L10.8335 4.75V3.70375C9.13925 3.94036 7.56481 4.68397 6.33231 5.82966C5.09981 6.97535 4.27147 8.46528 3.96416 10.0893L3.91633 10.375H5.00016C5.29752 10.3753 5.58353 10.4851 5.79976 10.682C6.01598 10.8788 6.1461 11.1478 6.16353 11.4341C6.18096 11.7203 6.08438 12.0022 5.89352 12.2221C5.70266 12.4419 5.43194 12.5833 5.13666 12.6171L5.00016 12.625H3.91516C4.16054 14.2587 4.93169 15.7769 6.11981 16.9654C7.30793 18.1539 8.85305 18.9527 10.5372 19.249L10.8335 19.2951V18.25C10.8338 17.9633 10.9477 17.6875 11.1518 17.479C11.3559 17.2705 11.6349 17.145 11.9318 17.1282C12.2286 17.1114 12.5209 17.2045 12.749 17.3885C12.977 17.5726 13.1235 17.8336 13.1587 18.1184L13.1668 18.25V19.2962C14.8611 19.0596 16.4355 18.316 17.668 17.1703C18.9005 16.0247 19.7289 14.5347 20.0362 12.9107L20.084 12.625H19.0002C18.7028 12.6247 18.4168 12.5149 18.2006 12.318C17.9843 12.1212 17.8542 11.8522 17.8368 11.5659C17.8194 11.2797 17.9159 10.9978 18.1068 10.7779C18.2977 10.5581 18.5684 10.4167 18.8637 10.3829L19.0002 10.375H20.0852C19.8398 8.74126 19.0686 7.22305 17.8805 6.03457C16.6924 4.84609 15.1473 4.04734 13.4632 3.751L13.1668 3.70375ZM12.0002 9.8125C12.4643 9.8125 12.9094 9.99029 13.2376 10.3068C13.5658 10.6232 13.7502 11.0524 13.7502 11.5C13.7502 11.9476 13.5658 12.3768 13.2376 12.6932C12.9094 13.0097 12.4643 13.1875 12.0002 13.1875C11.536 13.1875 11.0909 13.0097 10.7627 12.6932C10.4345 12.3768 10.2502 11.9476 10.2502 11.5C10.2502 11.0524 10.4345 10.6232 10.7627 10.3068C11.0909 9.99029 11.536 9.8125 12.0002 9.8125Z" fill="#3264FF"/>
</svg>
