<svg width="66" height="73" viewBox="0 0 66 73" fill="none" xmlns="http://www.w3.org/2000/svg">
<g filter="url(#filter0_d_1089_500)">
<circle cx="33" cy="35.4" r="29" fill="#A8B2FF"/>
</g>
<path fill-rule="evenodd" clip-rule="evenodd" d="M34.8796 49.2018C35.3781 49.2018 35.8562 49.3999 36.2087 49.7524C36.5612 50.1049 36.7592 50.583 36.7592 51.0815V52.9611C36.7592 53.4596 36.5612 53.9377 36.2087 54.2902C35.8562 54.6427 35.3781 54.8407 34.8796 54.8407H31.1203C30.6218 54.8407 30.1437 54.6427 29.7912 54.2902C29.4387 53.9377 29.2407 53.4596 29.2407 52.9611V51.0815C29.2407 50.583 29.4387 50.1049 29.7912 49.7524C30.1437 49.3999 30.6218 49.2018 31.1203 49.2018H34.8796ZM32.9999 17.2481C36.988 17.2481 40.8127 18.8324 43.6327 21.6524C46.4527 24.4724 48.037 28.2971 48.037 32.2852C48.037 37.6534 45.3472 41.8826 42.259 44.7133C40.8253 46.033 39.2068 47.1367 37.4547 47.9895C35.9171 48.7263 34.3345 49.2018 32.9999 49.2018L32.5469 49.183C31.3139 49.0928 29.9117 48.6436 28.5452 47.9895C26.7931 47.1367 25.1746 46.033 23.7409 44.7133C20.6526 41.8826 17.9629 37.6534 17.9629 32.2852C17.9629 28.2971 19.5471 24.4724 22.3671 21.6524C25.1871 18.8324 29.0119 17.2481 32.9999 17.2481ZM32.9999 22.5487C31.7537 24.7855 30.1805 28.541 30.1805 33.225C30.1805 37.909 31.7537 41.6645 32.9999 43.9032C34.2461 41.6664 35.8194 37.909 35.8194 33.2269C35.8194 28.541 34.2461 24.7855 32.9999 22.5468V22.5487ZM29.2181 21.6578C27.0247 22.4391 25.1268 23.8799 23.7847 25.7826C22.4426 27.6854 21.7222 29.9568 21.7222 32.2852C21.7222 36.3151 23.7315 39.6045 26.2821 41.9427C27.0454 42.6425 27.8716 43.2704 28.7501 43.8186C27.2278 40.4937 26.4338 36.8818 26.4212 33.225C26.4212 28.338 27.8685 24.3343 29.2181 21.6578ZM36.7817 21.6578C38.1313 24.3325 39.5786 28.338 39.5786 33.225C39.5786 37.5481 38.4452 41.1833 37.2479 43.8186C38.1272 43.2707 38.954 42.6428 39.7177 41.9427C42.2684 39.6045 44.2777 36.3151 44.2777 32.2852C44.2777 29.9568 43.5572 27.6854 42.2152 25.7826C40.8731 23.8799 38.9752 22.4391 36.7817 21.6578Z" fill="white"/>
<defs>
<filter id="filter0_d_1089_500" x="0" y="6.39999" width="66" height="66" filterUnits="userSpaceOnUse" color-interpolation-filters="sRGB">
<feFlood flood-opacity="0" result="BackgroundImageFix"/>
<feColorMatrix in="SourceAlpha" type="matrix" values="0 0 0 0 0 0 0 0 0 0 0 0 0 0 0 0 0 0 127 0" result="hardAlpha"/>
<feOffset dy="4"/>
<feGaussianBlur stdDeviation="2"/>
<feComposite in2="hardAlpha" operator="out"/>
<feColorMatrix type="matrix" values="0 0 0 0 0 0 0 0 0 0 0 0 0 0 0 0 0 0 0.25 0"/>
<feBlend mode="normal" in2="BackgroundImageFix" result="effect1_dropShadow_1089_500"/>
<feBlend mode="normal" in="SourceGraphic" in2="effect1_dropShadow_1089_500" result="shape"/>
</filter>
</defs>
</svg>
