<svg width="10" height="12" viewBox="0 0 10 12" fill="none" xmlns="http://www.w3.org/2000/svg">
<path fill-rule="evenodd" clip-rule="evenodd" d="M5.5835 10.0833C5.73821 10.0833 5.88658 10.1448 5.99598 10.2542C6.10537 10.3636 6.16683 10.512 6.16683 10.6667V11.25C6.16683 11.4047 6.10537 11.5531 5.99598 11.6625C5.88658 11.7719 5.73821 11.8333 5.5835 11.8333H4.41683C4.26212 11.8333 4.11375 11.7719 4.00435 11.6625C3.89495 11.5531 3.8335 11.4047 3.8335 11.25V10.6667C3.8335 10.512 3.89495 10.3636 4.00435 10.2542C4.11375 10.1448 4.26212 10.0833 4.41683 10.0833H5.5835ZM5.00016 0.166664C6.23784 0.166664 7.42483 0.658329 8.29999 1.5335C9.17517 2.40867 9.66683 3.59565 9.66683 4.83333C9.66683 6.49933 8.83208 7.81183 7.87366 8.69033C7.42872 9.09991 6.92644 9.44243 6.38266 9.70708C5.9055 9.93575 5.41433 10.0833 5.00016 10.0833L4.85958 10.0775C4.47691 10.0495 4.04175 9.91008 3.61766 9.70708C3.07389 9.44243 2.57161 9.09991 2.12666 8.69033C1.16825 7.81183 0.333496 6.49933 0.333496 4.83333C0.333496 3.59565 0.825161 2.40867 1.70033 1.5335C2.5755 0.658329 3.76249 0.166664 5.00016 0.166664ZM5.00016 1.81166C4.61341 2.50583 4.12516 3.67133 4.12516 5.125C4.12516 6.57866 4.61341 7.74416 5.00016 8.43891C5.38691 7.74475 5.87516 6.57866 5.87516 5.12558C5.87516 3.67133 5.38691 2.50583 5.00016 1.81108V1.81166ZM3.8265 1.53516C3.14578 1.77764 2.55677 2.2248 2.14026 2.8153C1.72375 3.40581 1.50016 4.11072 1.50016 4.83333C1.50016 6.084 2.12375 7.10483 2.91533 7.8305C3.15222 8.04766 3.40861 8.24254 3.68125 8.41266C3.20881 7.3808 2.96239 6.25987 2.9585 5.125C2.9585 3.60833 3.40766 2.36583 3.8265 1.53516ZM6.17383 1.53516C6.59266 2.36525 7.04183 3.60833 7.04183 5.125C7.04183 6.46666 6.69008 7.59483 6.3185 8.41266C6.59139 8.24264 6.84798 8.04775 7.085 7.8305C7.87658 7.10483 8.50016 6.084 8.50016 4.83333C8.50016 4.11072 8.27657 3.40581 7.86007 2.8153C7.44356 2.2248 6.85455 1.77764 6.17383 1.53516Z" fill="#3264FF"/>
</svg>
