<svg width="15" height="15" viewBox="0 0 15 15" fill="none" xmlns="http://www.w3.org/2000/svg">
<path d="M14.6875 7.34375C14.6875 7.46807 14.6381 7.5873 14.5502 7.67521C14.4623 7.76311 14.3431 7.8125 14.2188 7.8125H7.8125V14.2188C7.8125 14.3431 7.76311 14.4623 7.67521 14.5502C7.5873 14.6381 7.46807 14.6875 7.34375 14.6875C7.21943 14.6875 7.1002 14.6381 7.01229 14.5502C6.92439 14.4623 6.875 14.3431 6.875 14.2188V7.8125H0.46875C0.34443 7.8125 0.225201 7.76311 0.137294 7.67521C0.049386 7.5873 0 7.46807 0 7.34375C0 7.21943 0.049386 7.1002 0.137294 7.01229C0.225201 6.92439 0.34443 6.875 0.46875 6.875H6.875V0.46875C6.875 0.34443 6.92439 0.225201 7.01229 0.137294C7.1002 0.049386 7.21943 0 7.34375 0C7.46807 0 7.5873 0.049386 7.67521 0.137294C7.76311 0.225201 7.8125 0.34443 7.8125 0.46875V6.875H14.2188C14.3431 6.875 14.4623 6.92439 14.5502 7.01229C14.6381 7.1002 14.6875 7.21943 14.6875 7.34375Z" fill="#565656"/>
</svg>
