<svg xmlns="http://www.w3.org/2000/svg" xml:space="preserve" viewBox="0 0 512 512"><path d="M430.545 360.727c0 19.247-15.663 34.909-34.909 34.909H116.364c-19.247 0-34.909-15.663-34.909-34.909V81.455c0-6.423 5.225-11.636 11.636-11.636h58.182c19.247 0 34.909-15.663 34.909-34.909 0-6.423 5.225-11.636 11.636-11.636h116.364c6.412 0 11.636 5.213 11.636 11.636 0 19.247 15.663 34.909 34.909 34.909h58.182c6.412 0 11.636 5.213 11.636 11.636v279.272z" style="fill:#fff"/><path d="M116.364 128h279.273v139.636H116.364z" style="fill:#72c6ef"/><path d="M395.636 116.364H116.364c-6.423 0-11.636 5.201-11.636 11.636v139.636c0 6.435 5.213 11.636 11.636 11.636h279.273c6.423 0 11.636-5.201 11.636-11.636V128c0-6.435-5.213-11.636-11.637-11.636zM128 139.636h116.364V256H128V139.636zM384 256H267.636V139.636H384V256z" style="fill:#00384e"/><circle cx="128" cy="337.455" r="23.273" style="fill:#faa85f"/><circle cx="384" cy="337.455" r="23.273" style="fill:#faa85f"/><circle cx="256" cy="58.182" r="23.273" style="fill:#faa85f"/><path d="M418.909 46.545h-58.182c-6.412 0-11.636-5.213-11.636-11.636C349.091 15.663 333.428 0 314.182 0H197.818c-19.247 0-34.909 15.663-34.909 34.909 0 6.423-5.225 11.636-11.636 11.636H93.091c-19.247 0-34.909 15.663-34.909 34.909v279.273c0 32.081 26.1 58.182 58.182 58.182h23.273l-55.855 74.473c-3.863 5.132-2.816 12.428 2.327 16.279a11.528 11.528 0 0 0 6.97 2.339c3.537 0 7.028-1.606 9.321-4.655l13.964-18.618h279.273l13.964 18.618c2.281 3.06 5.783 4.655 9.321 4.655 2.42 0 4.876-.756 6.97-2.327 5.143-3.852 6.179-11.148 2.327-16.279l-55.855-74.484h23.273c32.081 0 58.182-26.1 58.182-58.182V81.455c-.001-19.247-15.663-34.91-34.91-34.91zm-40.727 418.91H133.818l34.909-46.545h174.545l34.91 46.545zm52.363-104.728c0 19.247-15.663 34.909-34.909 34.909H116.364c-19.247 0-34.909-15.663-34.909-34.909V81.455c0-6.423 5.225-11.636 11.636-11.636h58.182c19.247 0 34.909-15.663 34.909-34.909 0-6.423 5.225-11.636 11.636-11.636h116.364c6.412 0 11.636 5.213 11.636 11.636 0 19.247 15.663 34.909 34.909 34.909h58.182c6.412 0 11.636 5.213 11.636 11.636v279.272z" style="fill:#00384e"/></svg>