<svg xmlns="http://www.w3.org/2000/svg" width="29" height="29" fill="none"><path fill="#fff" d="m14.62 22.415-.12.12-.133-.12c-5.74-5.208-9.534-8.652-9.534-12.144 0-2.417 1.813-4.23 4.23-4.23 1.86 0 3.673 1.209 4.313 2.852h2.248c.64-1.643 2.453-2.851 4.313-2.851 2.417 0 4.23 1.812 4.23 4.229 0 3.492-3.795 6.936-9.546 12.144Zm5.318-18.79c-2.103 0-4.12.979-5.438 2.513-1.317-1.534-3.335-2.513-5.437-2.513-3.722 0-6.646 2.912-6.646 6.646 0 4.555 4.108 8.289 10.33 13.932l1.753 1.595 1.752-1.595c6.223-5.643 10.331-9.377 10.331-13.932 0-3.734-2.924-6.646-6.645-6.646Z"/></svg>