<svg xmlns="http://www.w3.org/2000/svg" width="30" height="30" fill="none"><path fill="#000" d="M27 13.2v8.4c0 .636-.316 1.247-.879 1.697-.562.45-1.325.703-2.121.703s-1.559-.253-2.121-.703c-.563-.45-.879-1.06-.879-1.697v-6h-3v-12c0-.955.474-1.87 1.318-2.546C20.162.38 21.306 0 22.5 0H27v13.2ZM6 12c-.796 0-1.559-.253-2.121-.703C3.316 10.847 3 10.237 3 9.6V1.2c0-.318.158-.623.44-.849A1.709 1.709 0 0 1 4.5 0c.398 0 .78.126 1.06.351.282.226.44.53.44.849V6h1.5V1.2c0-.318.158-.623.44-.849A1.709 1.709 0 0 1 9 0c.398 0 .78.126 1.06.351.282.226.44.53.44.849V6H12V1.2c0-.318.158-.623.44-.849A1.709 1.709 0 0 1 13.5 0c.398 0 .78.126 1.06.351.282.226.44.53.44.849v8.4c0 .636-.316 1.247-.879 1.697-.562.45-1.325.703-2.121.703v9.6c0 .636-.316 1.247-.879 1.697C10.56 23.747 9.796 24 9 24s-1.559-.253-2.121-.703C6.316 22.847 6 22.237 6 21.6V12Z"/></svg>