<svg xmlns="http://www.w3.org/2000/svg" width="30" height="28" fill="none"><path fill="#000" d="M5 25.667a2.497 2.497 0 0 1-1.766-.686c-.49-.458-.735-1.007-.734-1.648V4.667c0-.642.245-1.192.735-1.649A2.491 2.491 0 0 1 5 2.333h20c.688 0 1.276.229 1.766.686.49.458.735 1.007.734 1.648v18.666c0 .642-.245 1.192-.735 1.649a2.491 2.491 0 0 1-1.765.685H5Zm0-7v4.666h2.5V21H6.25v-2.333H5Zm0-2.334h1.25c0-.33.12-.607.36-.831.24-.225.537-.336.89-.335V12.25c0-.486.183-.9.547-1.24a1.87 1.87 0 0 1 1.328-.51h2.5c.52 0 .964.17 1.329.511.365.34.547.754.546 1.239v2.917c.354 0 .651.112.891.336.24.224.36.5.359.83h10V4.667H5v11.666Zm3.125 2.917h5v-2.333h-5v2.333Zm2.5-9.917c-.52 0-.964-.17-1.329-.51a1.628 1.628 0 0 1-.546-1.24c0-.486.182-.9.547-1.24a1.87 1.87 0 0 1 1.328-.51c.52 0 .964.17 1.329.511.365.341.547.754.546 1.24 0 .485-.182.899-.547 1.24a1.87 1.87 0 0 1-1.328.51Zm-.625 14h1.25V21H10v2.333Zm3.75 0H25v-4.666H15V21h-1.25v2.333Zm1.563-11.666c.041-.253.067-.443.078-.57.011-.127.016-.258.015-.393 0-.214-.047-.418-.141-.612-.094-.195-.287-.457-.578-.788a4.38 4.38 0 0 1-.703-1.108 2.871 2.871 0 0 1-.234-1.138c0-.155.01-.315.031-.48l.094-.745h1.875a7.544 7.544 0 0 0-.094.599 5.63 5.63 0 0 0-.031.626c0 .214.047.423.141.628.094.205.256.423.484.656.375.427.646.831.813 1.21.166.38.25.764.25 1.152 0 .214-.01.389-.032.525-.02.136-.052.282-.093.438h-1.875Zm3.124 0c.042-.253.068-.443.08-.57.01-.127.015-.258.014-.393 0-.214-.047-.418-.141-.612-.094-.195-.287-.457-.578-.788a4.38 4.38 0 0 1-.703-1.108 2.871 2.871 0 0 1-.234-1.138c0-.155.01-.315.031-.48L17 5.833h1.875a7.544 7.544 0 0 0-.094.599 5.63 5.63 0 0 0-.031.626c0 .214.047.423.141.628.094.205.256.423.484.656.375.427.646.831.813 1.21.166.38.25.764.25 1.152 0 .214-.01.389-.032.525-.02.136-.052.282-.093.438h-1.875Zm3.188 0c.042-.253.068-.443.079-.57.01-.127.016-.258.015-.393 0-.214-.047-.418-.142-.612-.094-.195-.286-.457-.577-.788a4.38 4.38 0 0 1-.704-1.108 2.871 2.871 0 0 1-.233-1.138c0-.155.01-.315.03-.48l.095-.745h1.875a7.544 7.544 0 0 0-.094.599 5.63 5.63 0 0 0-.032.626c0 .214.048.423.142.628.094.205.255.423.483.656.375.427.646.831.813 1.21.167.38.25.764.25 1.152 0 .214-.01.389-.031.525-.021.136-.052.282-.094.438h-1.875Z"/></svg>