<svg xmlns="http://www.w3.org/2000/svg" width="30" height="30" fill="none"><path fill="#000" d="M25.343 12.336 21.04 6.192 23.09 4.76l4.301 6.143-2.047 1.434Zm-2.355 3.175-2.15-3.073-10.24 7.17 2.15 3.07-2.048 1.436-5.735-8.193 2.048-1.433 2.15 3.072 10.24-7.17-2.15-3.073L19.3 5.884l5.735 8.191-2.047 1.435v.001Zm2.968-6.657 2.048-1.434-1.434-2.048-2.047 1.434 1.433 2.048ZM8.96 23.808l-4.302-6.144-2.048 1.433 4.301 6.144 2.05-1.433Zm-3.482-.614L3.43 24.628 1.996 22.58l2.048-1.434 1.434 2.048Z"/></svg>