<svg xmlns="http://www.w3.org/2000/svg" xml:space="preserve" viewBox="0 0 512.001 512.001"><path d="M87.981 132.324h336.05v369.458H87.981z" style="fill:#f2f2f2"/><path d="M423.851 83.758H88.15c-5.838 0-10.572 4.734-10.572 10.572v27.422c0 5.838 4.734 10.572 10.572 10.572h335.701c5.838 0 10.572-4.734 10.572-10.572V94.331c0-5.839-4.733-10.573-10.572-10.573z" style="fill:#ffad61"/><path d="M207.039 402.815h97.914v98.966h-97.914z" style="fill:#73c1dd"/><path d="M143.371 175.266h84.352v71.52h-84.352zM284.278 175.266h84.352v71.52h-84.352zM143.371 285.852h84.352v71.52h-84.352zM284.278 285.852h84.352v71.52h-84.352z" style="fill:#ffe6b8"/><path d="M424.024 512.001c5.643 0 10.22-4.575 10.22-10.22V139.732c6.205-3.601 10.398-10.303 10.398-17.979V94.331c0-11.464-9.327-20.792-20.792-20.792h-20.139c.337-1.048.509-2.218.509-3.39 0-3.597-1.587-7.195-4.761-7.195h-24.123V4.974c0-3.491-4.127-4.973-8.253-4.973s-8.253 1.482-8.253 4.973v67.292c0 .456.07.879.192 1.273h-7.882c.336-1.035.499-2.176.499-3.284 0-3.915-1.8-7.301-4.973-7.301H318.31V44.968h15.87c3.492 0 4.973-3.386 4.973-6.242 0-3.386-1.8-6.454-4.973-6.454h-15.87V14.39h28.355c3.174 0 4.973-3.386 4.973-7.301 0-3.386-1.482-7.089-4.973-7.089h-37.666c-3.597 0-7.196 1.693-7.196 5.079v67.185c0 .456.071.879.192 1.273h-26.543c.14-.394.22-.818.22-1.273V14.813h14.601c3.174 0 4.972-3.492 4.972-7.512 0-3.491-1.48-7.301-4.972-7.301h-45.708c-3.492 0-4.972 3.809-4.972 7.301 0 4.02 1.799 7.512 4.972 7.512h14.604v57.451c0 .456.08.879.22 1.273h-33.492c5.627-3.857 9.15-10.431 9.15-20.53V24.97c0-18.198-11.428-24.969-26.028-24.969s-25.922 6.771-25.922 24.969v28.038c0 10.098 3.49 16.673 9.088 20.53H172.3c.14-.394.22-.818.22-1.273V4.974c0-3.491-4.127-4.973-8.253-4.973-4.127 0-8.253 1.482-8.253 4.973v25.922H134.96V4.974c0-3.491-4.127-4.973-8.252-4.973-4.127 0-8.253 1.482-8.253 4.973v67.292c0 .456.081.879.22 1.273H88.15c-11.464 0-20.792 9.326-20.792 20.792v27.422c0 7.677 4.193 14.378 10.398 17.979v362.049c0 5.644 4.576 10.22 10.22 10.22h336.048zM199.602 24.97c0-7.301 3.492-10.58 9.416-10.58s9.523 3.28 9.523 10.58v28.038c0 7.301-3.597 10.58-9.523 10.58s-9.416-3.279-9.416-10.58V24.97zm-64.643 47.296V43.593h21.054v28.673c0 .456.081.879.22 1.273h-21.495c.14-.395.221-.818.221-1.273zM87.798 94.331c0-.194.157-.353.353-.353h335.7c.194 0 .353.158.353.353v27.422a.353.353 0 0 1-.353.353H88.15a.354.354 0 0 1-.353-.353l.001-27.422zM266.22 491.562v-24.275c0-5.644-4.576-10.22-10.22-10.22s-10.22 4.575-10.22 10.22v24.275h-28.519v-78.526h77.478v78.526H266.22zm147.585 0h-98.627v-88.746c0-5.644-4.576-10.22-10.22-10.22h-97.917c-5.643 0-10.22 4.575-10.22 10.22v88.746H98.196V142.543h315.609v349.019z" style="fill:#4d3d36"/><path d="M143.375 257.005h84.351c5.643 0 10.22-4.575 10.22-10.22v-71.519c0-5.644-4.576-10.22-10.22-10.22h-84.351c-5.643 0-10.22 4.575-10.22 10.22v71.519c0 5.644 4.576 10.22 10.22 10.22zm10.219-71.519h63.912v51.079h-63.912v-51.079zM284.275 257.005h84.351c5.643 0 10.22-4.575 10.22-10.22v-71.519c0-5.644-4.576-10.22-10.22-10.22h-84.351c-5.643 0-10.22 4.575-10.22 10.22v71.519c0 5.644 4.577 10.22 10.22 10.22zm10.22-71.519h63.912v51.079h-63.912v-51.079zM143.375 367.589h84.351c5.643 0 10.22-4.575 10.22-10.22V285.85c0-5.644-4.576-10.22-10.22-10.22h-84.351c-5.643 0-10.22 4.575-10.22 10.22v71.519c0 5.645 4.576 10.22 10.22 10.22zm10.219-71.518h63.912v51.079h-63.912v-51.079zM284.275 367.589h84.351c5.643 0 10.22-4.575 10.22-10.22V285.85c0-5.644-4.576-10.22-10.22-10.22h-84.351c-5.643 0-10.22 4.575-10.22 10.22v71.519c0 5.645 4.577 10.22 10.22 10.22zm10.22-71.518h63.912v51.079h-63.912v-51.079zM256.001 423.793c-5.643 0-10.22 4.575-10.22 10.22v3.119c0 5.644 4.576 10.22 10.22 10.22s10.22-4.575 10.22-10.22v-3.119c-.001-5.645-4.577-10.22-10.22-10.22z" style="fill:#4d3d36"/></svg>