<svg xmlns="http://www.w3.org/2000/svg" width="30" height="26" fill="none"><path fill="#000" d="M2.5 22.75v-2.167c.792 0 1.385-.18 1.781-.541.396-.361 1.177-.542 2.344-.542 1.167 0 1.969.18 2.406.542.438.36 1.031.541 1.781.541s1.344-.18 1.782-.541c.437-.361 1.24-.542 2.406-.542 1.167 0 1.969.18 2.406.542.438.36 1.032.541 1.782.541s1.343-.18 1.78-.541c.438-.361 1.24-.542 2.407-.542s1.948.18 2.344.542c.396.36.99.541 1.781.541v2.167c-1.23 0-2.036-.18-2.421-.542-.385-.36-.953-.541-1.704-.541-.75 0-1.344.18-1.781.541-.438.361-1.24.542-2.407.542-1.166 0-1.968-.18-2.406-.542-.437-.36-1.031-.541-1.781-.541s-1.344.18-1.781.541c-.438.361-1.24.542-2.406.542-1.167 0-1.97-.18-2.407-.542-.437-.36-1.031-.541-1.781-.541s-1.318.18-1.704.541c-.386.361-1.193.542-2.421.542Zm0-4.875v-2.167c.792 0 1.385-.18 1.781-.541.396-.361 1.177-.542 2.344-.542 1.167 0 1.974.18 2.422.542.449.36 1.037.541 1.765.541.75 0 1.344-.18 1.782-.541.437-.361 1.24-.542 2.406-.542 1.167 0 1.969.18 2.406.542.438.36 1.032.541 1.782.541s1.343-.18 1.78-.541c.438-.361 1.24-.542 2.407-.542s1.948.18 2.344.542c.396.36.99.541 1.781.541v2.167c-1.23 0-2.036-.18-2.421-.542-.385-.36-.953-.541-1.704-.541-.75 0-1.328.18-1.735.541-.407.361-1.224.542-2.453.542-1.187 0-1.994-.18-2.42-.542-.427-.36-1.016-.541-1.767-.541-.792 0-1.38.18-1.766.541-.386.361-1.193.542-2.421.542-1.23 0-2.048-.18-2.454-.542-.407-.36-.985-.541-1.734-.541-.75 0-1.317.18-1.702.541-.386.361-1.193.542-2.423.542Zm6.125-5.525 4.156-3.602-1.25-1.083c-.687-.596-1.416-1.03-2.187-1.3-.771-.271-1.719-.407-2.844-.407V3.25c1.563 0 2.854.15 3.875.447 1.02.299 2.02.872 3 1.72l8 6.933a6.637 6.637 0 0 1-1.031.475 3.451 3.451 0 0 1-1.157.175c-.75 0-1.343-.18-1.78-.542-.438-.36-1.24-.541-2.407-.541s-1.969.18-2.406.541c-.438.361-1.031.542-1.781.542-.438 0-.823-.059-1.157-.177a6.69 6.69 0 0 1-1.031-.473Zm12.25-9.1c.875 0 1.615.266 2.219.798.604.533.906 1.17.906 1.91 0 .759-.302 1.4-.906 1.923-.604.524-1.344.786-2.219.786-.875 0-1.615-.262-2.219-.786-.604-.523-.906-1.164-.906-1.923 0-.74.302-1.377.906-1.91.604-.533 1.344-.799 2.219-.798Z"/></svg>