<svg xmlns="http://www.w3.org/2000/svg" width="20" height="20" fill="none"><path fill="none" d="M0 0h20v20H0z"/><path fill="#000" d="m10.083 15.458-.083.084-.092-.084C5.95 11.867 3.333 9.492 3.333 7.083c0-1.666 1.25-2.916 2.917-2.916 1.283 0 2.533.833 2.975 1.966h1.55C11.217 5 12.467 4.167 13.75 4.167c1.667 0 2.917 1.25 2.917 2.916 0 2.409-2.617 4.784-6.584 8.375ZM13.75 2.5c-1.45 0-2.842.675-3.75 1.733A5.011 5.011 0 0 0 6.25 2.5c-2.567 0-4.583 2.008-4.583 4.583 0 3.142 2.833 5.717 7.125 9.609l1.208 1.1 1.208-1.1c4.292-3.892 7.125-6.467 7.125-9.609 0-2.575-2.016-4.583-4.583-4.583Z"/></svg>