<svg xmlns="http://www.w3.org/2000/svg" width="30" height="30" fill="none"><g clip-path="url(#a)"><path fill="#000" fill-rule="evenodd" d="M23.291 3.913C21.241 1.509 18.286 0 15 0c-3.286 0-6.242 1.509-8.291 3.913H23.29ZM6.71 19.989C8.759 22.392 11.714 23.9 15 23.9c3.286 0 6.242-1.509 8.291-3.912H6.71ZM4.976 4.929C2.228 4.929 0 7.305 0 10.237v3.428c0 2.931 2.228 5.308 4.976 5.308h20.048c2.748 0 4.976-2.377 4.976-5.308v-3.428c0-2.932-2.228-5.308-4.976-5.308H4.976Zm24.512 5.247c0-2.596-1.973-4.701-4.407-4.701h-4.977c-2.434 0-4.407 2.105-4.407 4.701v3.564c0 2.597-1.974 4.702-4.408 4.702h13.792c2.434 0 4.407-2.105 4.407-4.702v-3.564Zm-17.289.319v5.02h1.422v-5.02h-1.422Zm-.142-1.585c0 .24.09.469.248.638a.82.82 0 0 0 .598.264.82.82 0 0 0 .598-.264.934.934 0 0 0 .248-.638c0-.24-.09-.469-.248-.638a.82.82 0 0 0-.598-.264.82.82 0 0 0-.598.264.934.934 0 0 0-.248.638Zm-9.484-.72 1.835 7.325h1.18l1.379-5.066 1.379 5.066h1.223l1.805-7.325H9.995l-1.052 4.822L7.635 8.19H6.37L5.062 12.89 4.066 8.19H2.573Zm15.384 0v7.325h1.507v-2.867h3.413v-1.486h-3.413V9.676h3.64V8.19h-5.147Zm6.171 2.305v5.02h1.422v-5.02h-1.422ZM24 8.895c0 .24.09.469.248.638a.82.82 0 0 0 .598.264.82.82 0 0 0 .598-.264.934.934 0 0 0 .248-.638c0-.24-.09-.47-.248-.638a.82.82 0 0 0-.598-.265.82.82 0 0 0-.598.265.934.934 0 0 0-.248.638Z" clip-rule="evenodd"/></g><defs><clipPath id="a"><path fill="#fff" d="M0 0h30v24H0z"/></clipPath></defs></svg>