<svg xmlns="http://www.w3.org/2000/svg" xml:space="preserve" width="45" height="45" viewBox="0 0 502 502"><path d="M311.924 401.423H190.076v69.82c0 11.464 9.293 20.757 20.757 20.757h80.333c11.464 0 20.757-9.293 20.757-20.757v-69.82h.001z" style="fill:#603813"/><path d="M203.365 17.288C139.099 37.513 92.49 97.566 92.49 168.51c0 60.797 34.234 113.59 84.471 140.179h16.078c-19.294-33.228-31.538-82.728-31.538-138.022 0-64.61 16.714-121.31 41.864-153.379z" style="fill:#fbb03b"/><path d="M298.635 17.288c25.15 32.069 41.864 88.769 41.864 153.378 0 55.295-12.243 104.794-31.538 138.022h16.078c50.237-26.589 84.471-79.382 84.471-140.179 0-70.943-46.609-130.996-110.875-151.221zM203.365 17.288c-25.15 32.069-41.864 88.769-41.864 153.378 0 55.295 12.243 104.794 31.538 138.022h56.883V10.021c-16.212.108-31.848 2.638-46.557 7.267z" style="fill:#29abe2"/><path d="M298.635 17.288C283.599 12.556 267.599 10 251 10c-.361 0-.718.018-1.078.021v298.668h59.039c19.294-33.228 31.538-82.728 31.538-138.022 0-64.61-16.714-121.31-41.864-153.379z" style="fill:#fbb03b"/><path d="M386.19 67.903c-21.065-28.26-51.091-49.622-84.549-60.152l-.004-.002C285.296 2.607 268.26 0 251 0c-.289 0-.575.007-.861.015l-.277.006h-.007c-16.905.113-33.556 2.713-49.492 7.729-33.459 10.529-63.487 31.893-84.553 60.153-21.798 29.243-33.32 64.033-33.32 100.607 0 62.602 34.407 119.702 89.794 149.017a9.997 9.997 0 0 0 4.678 1.162h5.901l12.122 72.734h-4.909c-5.523 0-10 4.477-10 10v69.82c0 16.959 13.798 30.757 30.757 30.757h80.333c16.959 0 30.757-13.798 30.757-30.757v-69.82c0-5.523-4.477-10-10-10h-4.909l12.122-72.734h5.901a9.997 9.997 0 0 0 4.678-1.162c55.387-29.315 89.794-86.415 89.794-149.017.001-36.574-11.521-71.364-33.319-100.607zM102.49 168.51c0-54.839 29.535-103.835 75.9-129.653-17.108 34.958-26.889 81.858-26.889 131.81 0 46.675 8.664 91.35 24.1 125.809-45.268-26.692-73.111-75.105-73.111-127.966zm69.011 2.157c0-58.029 14.46-113.061 37.876-144.751a147.915 147.915 0 0 1 30.545-5.492V298.69h-40.99c-17.475-32.83-27.431-79.06-27.431-128.023zm130.423 300.576c0 5.932-4.826 10.757-10.757 10.757h-80.333c-5.932 0-10.757-4.826-10.757-10.757v-59.82h6.669l.033.001.035-.001h88.374l.035.001.033-.001h6.669v59.82h-.001zM261 391.423V345c0-5.523-4.477-10-10-10s-10 4.477-10 10v46.423h-25.739l-12.122-72.734H298.863l-12.122 72.734H261zm42.069-92.734h-43.147V20.264a148.186 148.186 0 0 1 32.701 5.651c23.416 31.69 37.876 86.723 37.876 144.751 0 48.964-9.956 95.194-27.43 128.023zm23.33-2.214c15.436-34.458 24.1-79.133 24.1-125.809 0-49.952-9.78-96.852-26.889-131.81 46.365 25.818 75.9 74.814 75.9 129.653 0 52.862-27.843 101.275-73.111 127.966z"/><path d="M315.497 119.608c-.769-5.469-5.821-9.275-11.295-8.511-5.469.769-9.279 5.826-8.511 11.295 2.196 15.618 3.309 31.859 3.309 48.274 0 28.128-3.35 56.065-9.687 80.793-1.371 5.35 1.854 10.798 7.205 12.169.833.213 1.667.315 2.49.315 4.457 0 8.522-3.003 9.68-7.52C315.53 229.723 319 200.87 319 170.667c0-17.344-1.178-34.522-3.503-51.059zM298.723 85.569c5.285-1.604 8.269-7.188 6.665-12.473-3.525-11.615-7.697-22.514-12.401-32.394-2.373-4.987-8.339-7.104-13.327-4.73-4.987 2.374-7.104 8.341-4.73 13.327 4.276 8.982 8.085 18.943 11.321 29.606 1.31 4.317 5.276 7.098 9.565 7.098.961 0 1.939-.14 2.907-.434z"/></svg>