<svg xmlns="http://www.w3.org/2000/svg" width="29" height="28" fill="none"><mask id="a" fill="#fff"><path d="M14.5 7c-.896 0-1.772.257-2.517.737a4.411 4.411 0 0 0-1.67 1.964c-.342.8-.432 1.679-.257 2.527a4.331 4.331 0 0 0 1.24 2.24 4.584 4.584 0 0 0 2.32 1.198c.879.169 1.79.082 2.618-.249a4.501 4.501 0 0 0 2.034-1.611c.497-.72.763-1.566.763-2.431a4.3 4.3 0 0 0-1.327-3.094A4.615 4.615 0 0 0 14.5 7Zm0 7a2.789 2.789 0 0 1-1.51-.442 2.647 2.647 0 0 1-1.002-1.178 2.54 2.54 0 0 1-.154-1.517c.104-.51.363-.977.744-1.344A2.75 2.75 0 0 1 13.97 8.8a2.809 2.809 0 0 1 1.57.15 2.7 2.7 0 0 1 1.22.967c.3.431.459.939.459 1.458a2.58 2.58 0 0 1-.797 1.856A2.769 2.769 0 0 1 14.5 14Zm0-12.25c-2.643.003-5.177 1.018-7.046 2.822-1.869 1.805-2.92 4.251-2.923 6.803 0 3.434 1.644 7.074 4.758 10.527a28.433 28.433 0 0 0 4.696 4.19.928.928 0 0 0 1.04 0 28.426 28.426 0 0 0 4.686-4.19c3.11-3.453 4.758-7.093 4.758-10.527-.003-2.552-1.055-4.998-2.923-6.803-1.87-1.804-4.403-2.82-7.046-2.822Zm0 22.531c-1.873-1.422-8.156-6.644-8.156-12.906a7.74 7.74 0 0 1 2.389-5.568A8.306 8.306 0 0 1 14.5 3.5c2.163 0 4.238.83 5.767 2.307a7.74 7.74 0 0 1 2.39 5.568c0 6.26-6.285 11.484-8.157 12.906Z"/></mask><path fill="#fff" d="M14.5 7c-.896 0-1.772.257-2.517.737a4.411 4.411 0 0 0-1.67 1.964c-.342.8-.432 1.679-.257 2.527a4.331 4.331 0 0 0 1.24 2.24 4.584 4.584 0 0 0 2.32 1.198c.879.169 1.79.082 2.618-.249a4.501 4.501 0 0 0 2.034-1.611c.497-.72.763-1.566.763-2.431a4.3 4.3 0 0 0-1.327-3.094A4.615 4.615 0 0 0 14.5 7Zm0 7a2.789 2.789 0 0 1-1.51-.442 2.647 2.647 0 0 1-1.002-1.178 2.54 2.54 0 0 1-.154-1.517c.104-.51.363-.977.744-1.344A2.75 2.75 0 0 1 13.97 8.8a2.809 2.809 0 0 1 1.57.15 2.7 2.7 0 0 1 1.22.967c.3.431.459.939.459 1.458a2.58 2.58 0 0 1-.797 1.856A2.769 2.769 0 0 1 14.5 14Zm0-12.25c-2.643.003-5.177 1.018-7.046 2.822-1.869 1.805-2.92 4.251-2.923 6.803 0 3.434 1.644 7.074 4.758 10.527a28.433 28.433 0 0 0 4.696 4.19.928.928 0 0 0 1.04 0 28.426 28.426 0 0 0 4.686-4.19c3.11-3.453 4.758-7.093 4.758-10.527-.003-2.552-1.055-4.998-2.923-6.803-1.87-1.804-4.403-2.82-7.046-2.822Zm0 22.531c-1.873-1.422-8.156-6.644-8.156-12.906a7.74 7.74 0 0 1 2.389-5.568A8.306 8.306 0 0 1 14.5 3.5c2.163 0 4.238.83 5.767 2.307a7.74 7.74 0 0 1 2.39 5.568c0 6.26-6.285 11.484-8.157 12.906Z"/><path fill="#fff" d="M19.031 11.375h64-64Zm-1.812 0h64-64ZM14.5 1.75l.07-64h-.14l.07 64Zm-9.969 9.625-64-.075v.075h64ZM9.29 21.902l47.647-42.729-.06-.067-.06-.066L9.289 21.902Zm4.696 4.19-37.083 52.161.608.433.618.418 35.857-53.013Zm1.04 0L50.88 79.103l.647-.437.636-.453L15.025 26.09Zm4.686-4.19-47.558-42.828-.063.07-.062.07L19.71 21.902Zm4.758-10.527h64V11.3l-64 .075ZM14.5 24.281l-38.704 50.971L14.5 104.641l38.704-29.389L14.5 24.282ZM6.344 11.375h-64 64ZM14.5 3.5v-64 64Zm0-60.5a68.647 68.647 0 0 0-37.213 10.958l69.39 107.559A59.353 59.353 0 0 1 14.5 71V-57Zm-37.213 10.958a68.411 68.411 0 0 0-25.79 30.51L69.13 34.933a59.589 59.589 0 0 1-22.452 26.584l-69.39-107.56Zm-25.79 30.51a68.234 68.234 0 0 0-4.125 40.674L72.74-.685a59.765 59.765 0 0 1-3.61 35.618L-48.501-15.532Zm-4.125 40.674a68.33 68.33 0 0 0 19.47 35.368L55.75-31.573A59.67 59.67 0 0 1 72.74-.685L-52.629 25.142Zm19.47 35.368A68.583 68.583 0 0 0 1.545 78.517L25.687-47.185A59.417 59.417 0 0 1 55.75-31.573L-33.158 60.51ZM1.545 78.517A68.682 68.682 0 0 0 40 74.841L-7.53-44.007a59.318 59.318 0 0 1 33.218-3.178L1.545 78.517ZM40 74.841a68.5 68.5 0 0 0 30.895-24.615l-105.253-72.84A59.5 59.5 0 0 1-7.531-44.007l47.53 118.848Zm30.895-24.615a68.268 68.268 0 0 0 12.137-38.851h-128a59.732 59.732 0 0 1 10.61-33.99l105.253 72.84Zm12.137-38.851c0-18.873-7.786-36.5-20.873-49.135L-26.75 54.323a59.7 59.7 0 0 1-18.219-42.948h128ZM62.158-37.76C49.148-50.322 31.965-57 14.5-57V71a59.386 59.386 0 0 1-41.25-16.677L62.158-37.76ZM14.5-50c11.63 0 23.174 3.32 33.185 9.778l-69.39 107.56A66.788 66.788 0 0 0 14.5 78V-50Zm33.185 9.778a61.354 61.354 0 0 1 23.12 27.37L-46.829 37.611a66.647 66.647 0 0 0 25.122 29.725l69.39-107.559Zm23.12 27.37a61.46 61.46 0 0 1 3.712 36.629L-50.85-2.051a66.54 66.54 0 0 0 4.022 39.663L70.804-12.853Zm3.712 36.629A61.401 61.401 0 0 1 57.032 55.56l-88.908-92.083A66.599 66.599 0 0 0-50.85-2.05L74.517 23.777ZM57.032 55.56A61.25 61.25 0 0 1 26.04 71.653L1.9-54.051a66.75 66.75 0 0 0-33.775 17.528l88.908 92.084ZM26.04 71.653a61.19 61.19 0 0 1-34.265-3.278l47.53-118.848A66.81 66.81 0 0 0 1.9-54.051L26.04 71.652Zm-34.265-3.278a61.3 61.3 0 0 1-27.641-22.037l105.253-72.84a66.701 66.701 0 0 0-30.081-23.971L-8.225 68.374Zm-27.641-22.037a61.44 61.44 0 0 1-10.915-34.962h128a66.562 66.562 0 0 0-11.832-37.878l-105.253 72.84Zm-10.915-34.962a61.42 61.42 0 0 1 18.75-44.185l88.907 92.083C73.625 46.965 81.22 29.784 81.22 11.375h-128Zm18.75-44.185A61.232 61.232 0 0 1 14.5-50V78a66.769 66.769 0 0 0 46.377-18.727l-88.909-92.084Zm42.46-29.44C-4.452-62.23-22.987-54.998-37-41.47l88.908 92.084A53.838 53.838 0 0 1 14.57 65.75l-.14-128ZM-37-41.47C-51.087-27.866-59.445-8.937-59.469 11.3l128 .15a54.53 54.53 0 0 1-16.623 39.164L-37-41.469Zm-22.469 52.845c0 24.126 11.293 42.37 21.231 53.39L56.816-20.96c3.71 4.114 11.715 15.078 11.715 32.335h-128Zm21.111 53.257a92.43 92.43 0 0 0 15.26 13.621L51.067-26.07a35.564 35.564 0 0 1 5.869 5.243l-95.294 85.459Zm16.486 14.472A64.929 64.929 0 0 0 14.506 90.25v-128A63.071 63.071 0 0 1 49.84-26.921L-21.872 79.104ZM14.506 90.25A64.929 64.929 0 0 0 50.88 79.104L-20.832-26.92a63.072 63.072 0 0 1 35.337-10.83v128Zm37.658-12.036A92.437 92.437 0 0 0 67.394 64.59l-95.366-85.377a35.573 35.573 0 0 1 5.858-5.245L52.163 78.214ZM67.269 64.73c9.874-10.965 21.2-29.198 21.2-53.356h-128c0-17.289 8.03-28.242 11.684-32.3L67.27 64.73Zm21.2-53.431c-.024-20.238-8.381-39.167-22.47-52.77l-88.907 92.084A54.53 54.53 0 0 1-39.531 11.45l128-.15Zm-22.47-52.77C51.989-54.997 33.454-62.23 14.57-62.25l-.14 128a53.838 53.838 0 0 1-37.338-15.136L66-41.469ZM53.205-26.69c1.16.881 3.737 2.895 6.576 6.459 2.092 2.626 10.564 13.741 10.564 31.606h-128c0 24.126 11.614 40.984 17.315 48.142 6.45 8.097 13.105 13.432 16.137 15.735L53.204-26.69Zm17.14 38.065a56.26 56.26 0 0 1-17.157 40.473l-88.908-92.083c-13.767 13.292-21.935 31.808-21.935 51.61h128ZM53.187 51.848A55.694 55.694 0 0 1 14.5 67.5v-128c-18.427 0-36.53 7.046-50.221 20.265l88.908 92.083ZM14.5 67.5a55.694 55.694 0 0 1-38.687-15.652l88.908-92.083C51.031-53.454 32.926-60.5 14.5-60.5v128Zm-38.687-15.652a56.26 56.26 0 0 1-17.157-40.473h128c0-19.802-8.168-38.318-21.935-51.61l-88.908 92.083Zm-17.157-40.473c0-17.868 8.475-28.984 10.561-31.604 2.837-3.561 5.412-5.574 6.58-6.46L53.203 75.251c3.04-2.308 9.693-7.645 16.14-15.739 5.696-7.152 17.312-24.01 17.312-48.138h-128Z" mask="url(#a)"/></svg>