<svg xmlns="http://www.w3.org/2000/svg" width="29" height="28" fill="none"><path fill="#3264FF" d="M14.5 1.75c-2.643.003-5.177 1.018-7.046 2.822-1.869 1.805-2.92 4.251-2.923 6.803 0 8.236 9.063 14.456 9.449 14.716a.929.929 0 0 0 1.04 0c.386-.26 9.449-6.48 9.449-14.716-.003-2.552-1.055-4.998-2.923-6.803-1.87-1.804-4.403-2.82-7.046-2.822Zm0 6.125c.717 0 1.418.205 2.014.59a3.53 3.53 0 0 1 1.335 1.57c.274.64.346 1.344.206 2.023a3.464 3.464 0 0 1-.992 1.792 3.666 3.666 0 0 1-1.856.958 3.745 3.745 0 0 1-2.094-.2 3.6 3.6 0 0 1-1.627-1.289 3.415 3.415 0 0 1-.611-1.944A3.44 3.44 0 0 1 11.937 8.9 3.692 3.692 0 0 1 14.5 7.875Z"/></svg>