<svg xmlns="http://www.w3.org/2000/svg" width="28" height="25" fill="none"><mask id="a" width="28" height="25" x="0" y="0" maskUnits="userSpaceOnUse" style="mask-type:luminance"><path fill="#fff" d="M0 25h28V0H0v25Z"/></mask><g mask="url(#a)"><g filter="url(#b)"><path fill="url(#c)" d="M13.977 1.376C11.985 3 10.608 5.124 10.034 7.461a1.046 1.046 0 0 0-.253-.333 1.17 1.17 0 0 0-.378-.223 1.41 1.41 0 0 0-.933 0 1.15 1.15 0 0 0-.382.223 1.045 1.045 0 0 0-.252.333.98.98 0 0 0-.09.411V25H-.001V7.873a6.987 6.987 0 0 1 .7-3.071c.903-1.89 2.609-3.393 4.754-4.188a9.658 9.658 0 0 1 2.88-.593 10.07 10.07 0 0 1 3.806.5c.649.22 1.266.507 1.839.855Z"/></g><g filter="url(#d)"><path fill="url(#e)" d="M28 7.873V25h-7.733V7.873a.88.88 0 0 0-.089-.393 1.154 1.154 0 0 0-.65-.575 1.41 1.41 0 0 0-.934 0 1.15 1.15 0 0 0-.382.223c-.108.096-.195.21-.255.336a.934.934 0 0 0-.086.409V25H10.12V7.873a.913.913 0 0 0-.09-.412c.575-2.336 1.952-4.46 3.944-6.084l.03.018a9.309 9.309 0 0 1 .767-.42l.046-.021a8.48 8.48 0 0 1 1.046-.431 10.037 10.037 0 0 1 6.702.097c2.134.799 3.831 2.3 4.732 4.182.468.971.707 2.016.703 3.07Z"/></g><path fill="#000" d="M13.977 1.376c-1.992 1.623-3.369 3.748-3.943 6.085a1.047 1.047 0 0 0-.253-.333 1.171 1.171 0 0 0-.378-.223 1.411 1.411 0 0 0-.933 0 1.15 1.15 0 0 0-.382.223 1.045 1.045 0 0 0-.252.333.98.98 0 0 0-.09.411 8.425 8.425 0 0 1 .988-4.148c.685-1.297 1.698-2.44 2.962-3.338a9.221 9.221 0 0 1 2.28.99Z" opacity=".16" style="mix-blend-mode:multiply"/><path fill="#000" d="M28 7.873v13.994s-.028-.475-.061-1.303c-.028-.83-.087-2.016-.123-3.436a264.613 264.613 0 0 1-.099-4.86c-.01-.89-.019-1.808-.027-2.743-.004-.466-.004-.935-.007-1.41a7.44 7.44 0 0 0-.098-1.373A6.977 6.977 0 0 0 26.6 4.17a8.068 8.068 0 0 0-1.861-2.063A9.305 9.305 0 0 0 22.367.783a9.883 9.883 0 0 0-2.449-.58 10.213 10.213 0 0 0-5.143.775 9.022 9.022 0 0 1 1.092-.453 10.037 10.037 0 0 1 6.701.097c2.135.8 3.832 2.3 4.732 4.183.467.97.705 2.014.7 3.068ZM22.672 25h-2.405v-8.012c.108.667.166 1.337.219 2.003.021.333.043.667.058 1.003l.034 1c.012.667.015 1.337 0 2.003-.01.604-.039 1.212-.074 1.817.323.019.643.038.966.068.398.03.803.067 1.202.118ZM17.874 9.868V25h-4.967c.827-.054 1.654-.092 2.482-.127.747-.027 1.495-.054 2.242-.074-.015-.563-.034-1.127-.043-1.69-.01-.63-.028-1.26-.028-1.893l-.006-1.889.01-1.892c.018-1.26.046-2.523.092-3.783.052-1.26.114-2.52.218-3.784Z" opacity=".7" style="mix-blend-mode:screen"/><path fill="#000" d="M7.747 10.28V25H.909a80.074 80.074 0 0 1 1.712-.084c.573-.022 1.137-.054 1.707-.069.569-.014 1.14-.04 1.711-.049l1.434-.034a192.91 192.91 0 0 1-.043-3.444c-.006-.613 0-1.226.003-1.841s.003-1.225.018-1.84l.04-1.838c.017-.615.03-1.228.058-1.84.02-.616.05-1.23.086-1.841.034-.612.06-1.228.112-1.84ZM8.277.026c-.132.016-.4.057-.775.13a10.108 10.108 0 0 0-3.451 1.368 8.866 8.866 0 0 0-1.264.971c-.413.381-.78.798-1.098 1.244-.332.46-.607.948-.822 1.458A6.631 6.631 0 0 0 .4 6.764a9.867 9.867 0 0 0-.116 1.59 96.608 96.608 0 0 1-.099 2.896 65.12 65.12 0 0 1-.184 2.824V7.872a6.988 6.988 0 0 1 .7-3.07c.902-1.89 2.607-3.393 4.75-4.188A9.656 9.656 0 0 1 8.278.026Z" opacity=".25" style="mix-blend-mode:multiply"/><path fill="#000" d="m13.977 1.376-.345.325-.329.336c-.218.225-.427.456-.622.694a12.825 12.825 0 0 0-1.061 1.493 11.662 11.662 0 0 0-.803 1.602c-.114.274-.21.553-.299.832l-.122.426-.087.355v.003c.066.179.094.367.084.555l.009.549.015 1.097.012 2.193c.007.732 0 1.461-.003 2.194-.003.733-.003 1.464-.018 2.194a221.73 221.73 0 0 1-.09 4.386c-.02.731-.046 1.463-.082 2.193-.037.73-.062 1.461-.111 2.194V7.87a.912.912 0 0 0-.09-.411c.575-2.336 1.951-4.46 3.942-6.083Z" opacity=".7" style="mix-blend-mode:screen"/></g><defs><linearGradient id="c" x1="180.265" x2="168.523" y1="-245.825" y2="-245.825" gradientUnits="userSpaceOnUse"><stop stop-color="#C33764"/><stop offset="1" stop-color="#1D2671"/></linearGradient><linearGradient id="e" x1="161.261" x2="161.261" y1="-234.133" y2="-258.564" gradientUnits="userSpaceOnUse"><stop stop-color="#A8B2FF"/><stop offset="1" stop-color="#F8007A"/></linearGradient><filter id="b" width="13.979" height="25.998" x="-.002" y=".002" color-interpolation-filters="sRGB" filterUnits="userSpaceOnUse"><feFlood flood-opacity="0" result="BackgroundImageFix"/><feBlend in="SourceGraphic" in2="BackgroundImageFix" result="shape"/><feColorMatrix in="SourceAlpha" result="hardAlpha" values="0 0 0 0 0 0 0 0 0 0 0 0 0 0 0 0 0 0 127 0"/><feOffset dy="1"/><feGaussianBlur stdDeviation="1"/><feComposite in2="hardAlpha" k2="-1" k3="1" operator="arithmetic"/><feColorMatrix values="0 0 0 0 0 0 0 0 0 0 0 0 0 0 0 0 0 0 0.25 0"/><feBlend in2="shape" result="effect1_innerShadow_656_807"/></filter><filter id="d" width="17.969" height="26.006" x="10.031" y="-.006" color-interpolation-filters="sRGB" filterUnits="userSpaceOnUse"><feFlood flood-opacity="0" result="BackgroundImageFix"/><feBlend in="SourceGraphic" in2="BackgroundImageFix" result="shape"/><feColorMatrix in="SourceAlpha" result="hardAlpha" values="0 0 0 0 0 0 0 0 0 0 0 0 0 0 0 0 0 0 127 0"/><feOffset dy="1"/><feGaussianBlur stdDeviation="1"/><feComposite in2="hardAlpha" k2="-1" k3="1" operator="arithmetic"/><feColorMatrix values="0 0 0 0 0 0 0 0 0 0 0 0 0 0 0 0 0 0 0.25 0"/><feBlend in2="shape" result="effect1_innerShadow_656_807"/></filter></defs></svg>