<?xml version="1.0" encoding="utf-8"?>
<!-- Generator: Adobe Illustrator 16.0.0, SVG Export Plug-In . SVG Version: 6.00 Build 0)  -->
<!DOCTYPE svg PUBLIC "-//W3C//DTD SVG 1.1//EN" "http://www.w3.org/Graphics/SVG/1.1/DTD/svg11.dtd">
<svg version="1.1" id="레이어_1" xmlns="http://www.w3.org/2000/svg" xmlns:xlink="http://www.w3.org/1999/xlink" x="0px"
	 y="0px" width="28px" height="28px" viewBox="0 0 609 487.5" enable-background="new 0 0 609 487.5" xml:space="preserve">
<image overflow="visible" width="724" height="673" xlink:href="FC9ABD4C.jpg"  transform="matrix(1.5359 0 0 1.5359 171.8525 741.9004)">
</image>
<g>
	<g>
		<path fill="#fff" d="M1019.7,90.6c-2.8-14.4-6.6-28.5-8.8-43c-2.4-15.4-3.1-30.9-2.7-46.5c0.8-29.5,4.7-62.9,20.3-88.6
			c8-13.2,20.1-22.4,33.8-29.1c6.9-3.4,14.1-5.9,21.4-8.2c7.4-2.4,15.2-5.2,22.9-6c7.5-0.7,13.2,2.9,18.7,7.7
			c6.1,5.2,11.6,11.4,16.3,18c8.9,12.5,14.7,26.9,19.4,41.3c4.9,14.9,8.5,30.2,12.4,45.4c0.7,2.6,1,4.9,1.2,7.6
			c0.8,11.3,0.6,22.8-0.8,34c-1.6,13.2-5.4,27.6-14.3,37.8c-4.5,5.1-10.2,8.5-16.7,10.3c-3.7,1-7.4,0.8-11.1,1.2
			c-6.4,0.7-11.9-2.6-17.3-5.8c-12.1-7.5-20.5-18.4-23.6-32.4c-3.4-15.6-0.1-32.5,3.5-47.8c3.5-14.9,8.2-29.5,13.2-44
			c2.5-7.3,5.1-14.5,7.7-21.8c2.7-7.3,4.9-13.6,10.2-19.4c9.6-10.6,22.2-20.7,35.8-25.7c6.6-2.5,13.7-2.5,20.7-2.4
			c3.2,0.1,7.1-0.2,10,1.5c3.4,2.1,7,4,10.4,6.1c6.1,3.7,9.6,10.7,13.3,16.5c4.5,6.9,8.3,14,11,21.7c5.2,14.8,8.5,30.6,11.4,46
			c3.2,17.1,3.4,34.4,5.6,51.5c1.9,14.6,4.9,29.1,10.3,42.8c5.6,14.4,14.5,29.5,29.6,35.5c11.9,4.7,22.5-0.9,31-9.7
			c8.2-8.5,13.7-19.4,18.9-29.8c4.5-9.2,8.4-18.7,11.2-28.5c7.7-26.4,7.6-54.4,5.1-81.5c-0.6-6.4-10.6-6.4-10,0
			c2.4,24.8,2.6,50.1-3.5,74.4c-4.6,18.5-13.1,37.1-24.1,52.7c-4.4,6.2-10.5,12.7-18.3,14.4c0.4-0.1-4.1-0.2-1.7,0.2
			c-2.8-0.4-5.4-1.4-7.9-2.7c-13.5-7.1-20-24-24.2-37.8c-3.6-11.8-5.9-24.2-7.1-36.4c-0.7-7.1-1-14.1-1.7-21.2
			c-1.5-16-4.3-31.8-8.1-47.4c-3.6-14.9-7.4-29.6-15.1-43c-3.5-6-7.4-12.1-11.5-17.7c-4.5-6-10.4-9.3-16.8-12.9
			c-2.7-1.5-4.8-3.2-7.9-4c-3.2-0.8-6.7-0.7-9.9-0.8c-7.3-0.2-14.7,0.1-21.8,2.2c-13.4,3.9-24.9,13.3-35.2,22.4
			c-5,4.5-9.3,9.4-13.2,14.8c-1.7,2.4-2.6,5.5-3.6,8.3c-1.5,4.2-3.1,8.5-4.6,12.7C1098-61.7,1093-47,1088.6-32
			c-8,27.3-16.2,60.9-0.6,86.9c6.6,11,17.8,19.6,29.3,24.8c8.7,4,18.7,3.4,27.9,1.2c14.4-3.4,24.8-14.7,30.6-27.8
			c9.3-20.9,10.5-45.9,8.1-68.4c-1-9.8-4.6-19.9-7.2-29.5c-3.9-14.8-8.5-29.4-14.5-43.4c-6-13.8-14.3-26.3-24.9-37.1
			c-10.1-10.3-21.1-17.4-35.9-14.8c-11.7,2-23.5,6.3-34.5,10.7c-10.9,4.3-21,9.8-30.1,17.2c-18.4,14.9-27.3,37.8-32.3,60.3
			c-5.4,24.2-7.3,49.4-6.2,74.1c1.1,24.3,7,47.4,11.7,71.1C1011.3,99.5,1021,96.9,1019.7,90.6L1019.7,90.6z"/>
	</g>
</g>
<path fill="none" stroke="#BF29FF" stroke-width="2" stroke-linecap="round" stroke-miterlimit="10" d="M759.2-68"/>
<path fill="none" stroke="#BF29FF" stroke-miterlimit="10" d="M704.9,814.9"/>
<path fill="none" stroke="#BF29FF" stroke-miterlimit="10" d="M704.9,814.1"/>
<path fill="#0E76FB" stroke="#0E76FB" stroke-width="2" stroke-linecap="round" stroke-miterlimit="10" d="M1008.9,377.9h-11.2
	c0,0-1.3-2.7-1.3-6.3c0-3.7,5.8-6.3,5.8-6.3l-6.5-49.8c0-31.8,12.2-34.9,12.2-34.9l1.9-0.7L1008.9,377.9z"/>
<path fill="#0E76FB" stroke="#0E76FB" stroke-width="2" stroke-linecap="round" stroke-miterlimit="10" d="M1118.9,321.9"/>
<path fill="#0E76FB" stroke="#0E76FB" stroke-width="2" stroke-linecap="round" stroke-miterlimit="10" d="M998.1,309.4
	c-10.9,9.9-22.4,21.9-28.5,35.4c-1.9,4.1-2.9,10.3-0.6,14.4c2.4,4.2,8.7,1.8,11.6-0.9c4-3.7,7.9-7.4,11.9-11.1
	c1-0.9,8.5-6.6,8.4-7.9L998.1,309.4z"/>
<path fill="#0E76FB" stroke="#0E76FB" stroke-width="2" stroke-linecap="round" stroke-miterlimit="10" d="M1009.7,377.9h11.2
	c0,0,1.3-2.7,1.3-6.3c0-3.7-5.8-6.3-5.8-6.3l6.5-49.8c0-31.8-12.2-34.9-12.2-34.9l-1.9-0.7L1009.7,377.9z"/>
<path fill="#0E76FB" stroke="#0E76FB" stroke-width="2" stroke-linecap="round" stroke-miterlimit="10" d="M1020.4,309.4
	c10.9,9.9,22.4,21.9,28.5,35.4c1.9,4.1,2.9,10.3,0.6,14.4c-2.4,4.2-8.7,1.8-11.6-0.9c-4-3.7-7.9-7.4-11.9-11.1
	c-1-0.9-8.5-6.6-8.4-7.9L1020.4,309.4z"/>
<path fill="#0E76FB" stroke="#0E76FB" stroke-width="2" stroke-linecap="round" stroke-miterlimit="10" d="M1107.7,287.7
	c-10.4,9.4-21.2,20.8-27.1,33.6c-1.8,3.9-2.8,9.8-0.5,13.7c2.2,4,8.3,1.7,11-0.8c3.8-3.5,7.5-7,11.3-10.6c1-0.9,8-6.3,7.9-7.4
	L1107.7,287.7z"/>
<path fill="#0E76FB" stroke="#0E76FB" stroke-width="2" stroke-linecap="round" stroke-miterlimit="10" d="M1126.3,342.2l6.5-49.8
	c0-2.5-0.1-5-0.2-7.4c-0.1-2.2-0.4-4.3-0.7-6.5c-0.3-1.8-0.7-3.5-1.1-5.3c-0.4-1.4-0.8-2.9-1.2-4.3c-0.4-1.2-0.8-2.4-1.4-3.5
	c-0.5-1-1-1.9-1.7-2.8c-0.5-0.7-1-1.3-1.6-2c-0.4-0.5-0.8-0.9-1.2-1.3c-0.4-0.4-0.8-0.7-1.3-1c-0.6-0.4-1.3-0.7-2-1
	c-0.2-0.1-0.4-0.2-0.6-0.2c-0.7-0.3-1.2,0.1-1.8,0.3c-0.5,0.2-1,0.4-1.4,0.7c-0.5,0.3-1,0.6-1.4,0.9c-0.5,0.4-1,0.9-1.4,1.4
	c-0.5,0.6-1,1.2-1.4,1.9c-0.5,0.8-1,1.6-1.5,2.5c-0.6,1-1.1,2.1-1.5,3.2c-0.5,1.3-1,2.7-1.4,4.1c-0.5,1.7-0.8,3.4-1.1,5.2
	c-0.3,2.1-0.5,4.2-0.7,6.3c-0.2,2.3-0.3,4.7-0.4,7.1c0,0.6-0.1,1.2-0.1,1.7l6.5,49.8c0,0-5.8,2.7-5.8,6.3c0,3.7,1.3,6.3,1.3,6.3
	h11.2l0.4-38.7l0.4,38.7h11.2c0,0,1.3-2.7,1.3-6.3C1132.2,344.9,1126.3,342.2,1126.3,342.2z"/>
<path fill="#0E76FB" stroke="#0E76FB" stroke-width="2" stroke-linecap="round" stroke-miterlimit="10" d="M1130.9,287.7
	c10.4,9.4,21.2,20.8,27.1,33.6c1.8,3.9,2.8,9.8,0.5,13.7c-2.2,4-8.3,1.7-11-0.8c-3.8-3.5-7.5-7-11.3-10.6c-1-0.9-8-6.3-7.9-7.4
	L1130.9,287.7z"/>
<g>
	<g>
		<path fill="#fff" d="M232.2,1139.8c-6.1-30.2-13.8-59.5-16.1-90.3c-2.4-31.4-0.7-63.3,4.5-94.4c5-29.8,13.1-60.2,32.8-83.8
			c17.4-20.8,40.9-35.7,67.1-42.4c24.6-6.3,48.2,0.1,62.3,21.6c6.8,10.3,11.8,21.8,17.5,32.8c7.6,14.5,15.1,29,21.2,44.2
			c12.3,31.1,20.2,64,20.2,97.6c0,22.6-4.4,47-21.1,63.3c-15,14.6-41.8,14.8-58,2.1c-19.7-15.4-23.4-41.8-23.1-65.2
			c0.3-28.3,6.1-57.6,13.4-84.8c7.8-29.3,22.1-55.7,43.3-77.4c17.2-17.5,43.9-35.5,69.8-30.6c25.6,4.9,42.1,35.5,50.5,57.5
			c11.5,30.2,18.3,63.6,21.8,95.7c3.6,33,3.3,66.4,12,98.7c7.4,27.4,20.2,57.8,46.9,71.3c31.6,15.9,68-3.6,87.6-29.2
			c43.3-56.7,38-134.1,31.5-200.7c-1.2-11.8-9-21.8-21.8-21.8c-11,0-22.9,9.9-21.8,21.8c5.9,59.9,11.1,121.4-22.5,174.5
			c-9,14.3-30.5,25.3-42.6,8.7c-15-20.6-19.8-49.5-21.9-74.2c-5.6-65.1-9.6-137.3-45.5-194.2c-17.3-27.5-42.5-47.5-75.1-51.8
			c-31.4-4.1-62.2,12.9-85.9,31.5c-52.3,40.9-70.7,104.8-79.5,167.6c-7.9,56.1-2.8,124,57.6,148.7c26.9,11,58.3,7.9,82.5-8.1
			c23.6-15.6,36.9-41.9,42.2-69c12.8-65.5-10.3-134.5-40.6-191.9c-10.2-19.3-19.1-39-33.5-55.7c-16.5-19.2-40.3-26.6-64.7-28.4
			c-47.2-3.5-96.3,26.7-124.7,62.4c-33.6,42.2-42.5,98-46,150.4c-1.7,25.6-0.6,51.3,2.6,76.8c3.4,26.6,10,52.2,15.3,78.4
			c2.4,11.6,15.9,18.2,26.8,15.2C229,1163.2,234.6,1151.4,232.2,1139.8L232.2,1139.8z"/>
	</g>
	<path fill="#fff" stroke="#fff" stroke-width="2" stroke-linecap="round" stroke-miterlimit="10" d="M755.4,814.8
		c-10.6-21.7-29.2-40.8-47.5-56.8c-0.1-2.8-0.3-5.5-0.6-8.3c-0.4-4-0.9-7.9-1.6-11.8c-0.6-3.2-1.4-6.4-2.3-9.5
		c-0.7-2.6-1.5-5.2-2.5-7.7c-0.8-2.2-1.7-4.3-2.8-6.3c-0.9-1.7-2-3.4-3.2-4.9c-0.9-1.2-1.9-2.4-2.9-3.5c-0.7-0.8-1.4-1.6-2.2-2.4
		c-0.8-0.7-1.6-1.3-2.5-1.8c-1.2-0.6-2.5-1.2-3.7-1.7c-0.3-0.1-0.7-0.3-1-0.4c-1.3-0.5-2.1,0.3-3.3,0.7c-0.9,0.3-1.8,0.8-2.6,1.3
		c-0.9,0.5-1.8,1.1-2.5,1.8c-0.9,0.8-1.7,1.7-2.5,2.6c-0.9,1.1-1.7,2.3-2.5,3.6c-0.9,1.5-1.8,3-2.6,4.6c-1,1.9-1.8,3.9-2.6,5.8
		c-0.9,2.4-1.7,5-2.3,7.5c-0.7,3.1-1.3,6.3-1.7,9.5c-0.5,3.8-0.7,7.7-0.9,11.5c-0.2,3.5-0.2,7.1-0.3,10.7
		c-17.4,17-34.9,37.2-44.3,59.5c-3,7.2-4.5,18-0.3,25c4.3,7.1,15.2,2.7,20.1-2.1c6.7-6.6,13.3-13.2,20-19.9
		c1.2-1.2,8.2-6.9,11.9-10.8l7,44.2c0,0-10.5,5.2-10.3,11.9c0.2,6.7,2.8,11.5,2.8,11.5l13.1-0.4l7.3-0.2l1.4,0l7.7-0.2l12.7-0.4
		c0,0,2.3-5,2.1-11.7c-0.2-6.7-11-11.3-11-11.3l4.5-44.5c3.9,3.6,11.2,8.9,12.5,10.1c7,6.2,14.1,12.5,21.1,18.7
		c5.1,4.5,16.3,8.3,20.1,0.9C761,832.5,758.8,821.8,755.4,814.8z"/>
</g>
<g>
	<g>
		<path fill="#fff" d="M86.6,423.2c-4.4-23.4-10.3-46.3-13.5-69.9c0.4,2.7,0.7,5.3,1.1,8c-5.2-39.5-4.9-79.3,0.3-118.8
			c-0.4,2.7-0.7,5.3-1.1,8c3.3-24.7,8.3-49.4,17.8-72.5c-1,2.4-2,4.8-3,7.2c3.8-8.9,8.3-17.4,13.7-25.5c1.2-1.7,2.4-3.5,3.6-5.1
			c1.8-2.5,1.2-1.7-1.8,2.3c1-1.2,2-2.4,3-3.7c3-3.6,6.2-7,9.5-10.3c2.9-2.9,6-5.7,9.2-8.4c1.7-1.4,7.9-6.1,0-0.1
			c2-1.6,4.1-3,6.3-4.5c7.6-5.2,15.7-9.5,24-13.1c-2.4,1-4.8,2-7.2,3c9.2-3.9,18.8-6.7,28.7-8.2c-2.7,0.4-5.3,0.7-8,1.1
			c8-1,15.9-1,24,0.1c-2.7-0.4-5.3-0.7-8-1.1c6.3,1,12.4,2.4,18.3,4.8c-2.4-1-4.8-2-7.2-3c1.8,0.8,3.5,1.6,5.3,2.6
			c2.1,1.2,9.5,6.8,1.3,0.4c3.4,2.7,6.5,5.8,9.3,9.1c5,5.8-3.3-4.5-0.3-0.4c1.4,1.9,2.7,4,4,6c2.6,4.1,4.8,8.4,7,12.7
			c9.2,18.2,18.5,36.7,26.5,55.4c-1-2.4-2-4.8-3-7.2c11.9,28.3,20.8,58.1,25,88.6c-0.4-2.7-0.7-5.3-1.1-8c2.5,19.2,3.1,38.7,0.6,58
			c0.4-2.7,0.7-5.3,1.1-8c-1.5,11.1-4.1,21.9-8.5,32.3c1-2.4,2-4.8,3-7.2c-1.7,3.8-3.5,7.5-5.6,11.1c-0.9,1.6-2,3.1-3,4.6
			c-1.8,2.4-1,1.5,2.2-2.8c-0.8,1.1-1.8,2.1-2.7,3.2c-1.2,1.4-2.5,2.7-3.9,4c-1.8,1.7-8.8,6.9-0.4,0.7c-3.9,2.9-8.3,5.2-12.8,7.1
			c2.4-1,4.8-2,7.2-3c-5,2-10.1,3.3-15.4,4c2.7-0.4,5.3-0.7,8-1.1c-5.7,0.7-11.4,0.6-17.2-0.2c2.7,0.4,5.3,0.7,8,1.1
			c-5.7-0.9-11.2-2.4-16.5-4.7c2.4,1,4.8,2,7.2,3c-3.5-1.6-6.9-3.4-10.1-5.5c-6.4-4.1,4.2,3.6,0.2,0.4c-1.9-1.5-3.6-3.3-5.3-5
			c-1.4-1.4-2.6-2.9-3.9-4.4c6.5,8,1,1.1-0.4-1c-2.4-3.7-4.3-7.6-6-11.6c1,2.4,2,4.8,3,7.2c-4-9.5-6.5-19.5-7.9-29.7
			c0.4,2.7,0.7,5.3,1.1,8c-2.7-21-0.7-41.8,2.1-62.7c-0.4,2.7-0.7,5.3-1.1,8c4.1-30.4,9.5-60.9,21.4-89.3c-1,2.4-2,4.8-3,7.2
			c3.9-9,8.4-17.6,13.5-25.9c2.4-4,5.1-7.8,7.8-11.6c0.7-0.9,1.4-1.9,2.1-2.8c-2.9,3.7-3.4,4.4-1.5,1.9c1.8-2.3,3.7-4.5,5.6-6.7
			c6.5-7.5,13.9-14.2,21.6-20.3c-7.2,5.8-0.5,0.5,1.1-0.6c1.8-1.3,3.6-2.4,5.5-3.6c4-2.5,8.2-4.6,12.5-6.4c-2.4,1-4.8,2-7.2,3
			c7.4-3.1,15.1-5.4,23-6.6c-2.7,0.4-5.3,0.7-8,1.1c5.7-0.7,11.4-0.9,17.2-0.2c-2.7-0.4-5.3-0.7-8-1.1c4.6,0.7,9,1.8,13.3,3.6
			c-2.4-1-4.8-2-7.2-3c2.8,1.3,5.6,2.7,8.2,4.4c1.3,0.8,2.6,1.7,3.9,2.6c4.9,3.4-5.7-4.6-1.1-0.8c5,4.1,9.4,8.8,13.4,13.8
			c3.9,4.7-4.3-5.8-0.7-0.9c1,1.3,1.9,2.7,2.8,4c1.8,2.7,3.5,5.4,5.1,8.2c3.4,5.9,6.4,12.1,9,18.4c-1-2.4-2-4.8-3-7.2
			c6.3,15.3,10.6,31.1,14.4,47.2c4.1,17.4,7.7,34.8,10.1,52.5c-0.4-2.7-0.7-5.3-1.1-8c4.3,32.9,4.4,66.2,9.5,99
			c2.2,13.9,6.1,27.5,10.7,40.8c5.5,15.7,12.7,30.3,24.3,42.4c13.2,13.8,32.1,21.4,51.1,21.7c19.5,0.3,37.8-9,51.3-22.5
			c12.5-12.5,20-28.2,26.4-44.4c5.4-13.7,9.3-28.2,12.5-42.6c7.8-35.4,7.7-71.2,9.4-107.1c0.8-16.3-14.2-30-30-30
			c-17,0-29.2,13.7-30,30c-1.2,25.1-0.8,50.5-4.1,75.5c0.4-2.7,0.7-5.3,1.1-8c-3.3,24-9.1,48.3-18.5,70.7c1-2.4,2-4.8,3-7.2
			c-1.5,3.4-3.1,6.8-4.9,10.1c-1,1.9-2.1,3.7-3.2,5.5c-1.2,1.9-5.9,8.1,0.1,0.3c-2.3,2.9-4.8,5.5-7.6,8c-2.4,2-1.6,1.4,2.3-1.7
			c-0.9,0.6-1.7,1.2-2.6,1.8c-1.8,1.1-3.6,2-5.5,2.8c2.4-1,4.8-2,7.2-3c-3.3,1.3-6.7,2.2-10.2,2.7c2.7-0.4,5.3-0.7,8-1.1
			c-3.5,0.3-7,0.3-10.5-0.2c2.7,0.4,5.3,0.7,8,1.1c-3.6-0.6-6.9-1.6-10.3-3c2.4,1,4.8,2,7.2,3c-2.8-1.3-5.5-2.9-8-4.7
			c7.5,5.3,3.3,2.5,1.6,0.9c-1.4-1.3-2.7-2.8-3.9-4.2c6,7.1,2.5,3.3,1.2,1.4c-1.1-1.6-2.1-3.3-3-5c-1.7-3-3.1-6.2-4.5-9.3
			c1,2.4,2,4.8,3,7.2c-6.9-16.9-11.6-34.8-14.2-53c0.4,2.7,0.7,5.3,1.1,8c-2-14.9-2.7-30-3.8-45c-1.3-18.3-3.2-36.5-5.8-54.7
			c-2.3-15.7-5.6-31.2-9.3-46.7c-3.5-14.9-7.5-29.6-13-43.8c-12.1-31-30.6-60.5-59.7-78.2c-30.9-18.7-68.8-12.5-99.2,3.9
			c-14.2,7.6-27.1,18.6-38.4,29.9c-11.6,11.7-21.6,25.2-30.2,39.2c-16.4,26.7-25.9,57.1-31.8,87.7c-3.2,16.5-5.3,33.2-7.5,49.9
			c-1.6,12.1-2.5,24.1-2.3,36.3c0.3,14.4,2.1,29.1,5.9,43.1c4.4,16,12.1,30.2,22.3,43.1c18.6,23.6,51.1,37.4,81,34
			c8.1-0.9,15.8-2.1,23.4-5.1c10.4-4.1,18.4-8.9,27.2-15.7c10.7-8.3,19.3-19.7,25.4-31.7c13.2-25.9,17-55.5,16.3-84.2
			c-0.8-33.3-7.9-66.7-18.7-98.2c-10-29.3-24.1-56.9-37.7-84.6c-13.7-28.1-34.3-52.2-65.5-60.6C147.1,38.4,81.8,80.4,48.3,132
			c-14.2,21.9-22.4,47.6-27.8,73c-5.6,26.5-8.7,53.9-9.9,81c-1.2,28,0.8,55.7,4.6,83.4c3.2,23.6,9.1,46.5,13.5,69.9
			c3,16.1,22.1,25,36.9,21C82.4,455.5,89.6,439.3,86.6,423.2L86.6,423.2z"/>
	</g>
</g>
<path fill="#fff" stroke="#fff" stroke-width="2" stroke-linecap="round" stroke-miterlimit="10" d="M592.2,120.3
	c-12-20.4-32.3-37.9-52.1-52.4c-0.3-2.7-0.6-5.3-0.9-7.9c-0.5-3.8-1.2-7.6-2.2-11.3c-0.8-3.1-1.7-6.1-2.8-9.1
	c-0.9-2.5-1.8-4.9-2.9-7.3c-0.9-2-1.9-4-3.2-5.9c-1-1.6-2.2-3.2-3.6-4.6c-1-1.1-2.1-2.2-3.2-3.3c-0.8-0.7-1.6-1.5-2.4-2.2
	c-0.8-0.6-1.7-1.2-2.7-1.6c-1.3-0.6-2.6-1-4-1.4c-0.4-0.1-0.7-0.2-1.1-0.3c-1.4-0.4-2.2,0.4-3.5,0.8c-0.9,0.4-1.8,0.9-2.7,1.4
	c-0.9,0.6-1.8,1.2-2.6,1.9c-0.9,0.8-1.7,1.7-2.5,2.6c-0.9,1.1-1.7,2.3-2.5,3.5c-0.9,1.5-1.8,3-2.5,4.6c-0.9,1.9-1.8,3.8-2.5,5.8
	c-0.9,2.4-1.5,4.9-2.1,7.3c-0.7,3.1-1.1,6.1-1.3,9.2c-0.3,3.7-0.5,7.4-0.5,11.1c0,3.4,0,6.9,0.1,10.3c-17.5,17.3-35.1,37.6-44,59.6
	c-2.9,7.1-4,17.6,0.7,24.1c4.8,6.6,16.1,1.8,20.9-3c6.7-6.7,13.4-13.4,20.1-20.2c1.2-1.2,8.3-7.1,12-11l9.2,42.3
	c0,0-10.8,5.5-10.3,12c0.5,6.4,3.4,11,3.4,11l13.7-1l7.6-0.6l1.5-0.1l8-0.6l13.3-1c0,0,2.2-4.9,1.7-11.3c-0.5-6.4-12-10.3-12-10.3
	l2.9-43.2c4.2,3.3,12.1,8.1,13.5,9.1c7.6,5.7,15.3,11.3,22.9,17c5.5,4.1,17.4,7.2,21.1-0.1C598.7,137.1,596.1,126.9,592.2,120.3z"/>
</svg>
