<svg width="15" height="15" viewBox="0 0 15 15" fill="none" xmlns="http://www.w3.org/2000/svg">
<path d="M11.25 6.25H8.75V3.75C8.75 3.41848 8.6183 3.10054 8.38388 2.86612C8.14946 2.6317 7.83152 2.5 7.5 2.5C7.16848 2.5 6.85054 2.6317 6.61612 2.86612C6.3817 3.10054 6.25 3.41848 6.25 3.75L6.29437 6.25H3.75C3.41848 6.25 3.10054 6.3817 2.86612 6.61612C2.6317 6.85054 2.5 7.16848 2.5 7.5C2.5 7.83152 2.6317 8.14946 2.86612 8.38388C3.10054 8.6183 3.41848 8.75 3.75 8.75L6.29437 8.70563L6.25 11.25C6.25 11.5815 6.3817 11.8995 6.61612 12.1339C6.85054 12.3683 7.16848 12.5 7.5 12.5C7.83152 12.5 8.14946 12.3683 8.38388 12.1339C8.6183 11.8995 8.75 11.5815 8.75 11.25V8.70563L11.25 8.75C11.5815 8.75 11.8995 8.6183 12.1339 8.38388C12.3683 8.14946 12.5 7.83152 12.5 7.5C12.5 7.16848 12.3683 6.85054 12.1339 6.61612C11.8995 6.3817 11.5815 6.25 11.25 6.25Z" fill="#3264FF"/>
</svg>
