<svg width="12" height="12" viewBox="0 0 12 12" fill="none" xmlns="http://www.w3.org/2000/svg">
<path d="M6.72563 5.63077L0.000624955 4.95327L0 0.67077C8.18096e-05 0.55641 0.0293799 0.443967 0.0851148 0.344107C0.14085 0.244248 0.221173 0.160284 0.318466 0.100181C0.415758 0.0400775 0.526793 0.00582761 0.641038 0.000680359C0.755282 -0.00446689 0.868947 0.0196592 0.97125 0.0707699L10.8787 5.02452C10.99 5.08035 11.0836 5.16603 11.149 5.27199C11.2144 5.37795 11.249 5.50001 11.249 5.62452C11.249 5.74903 11.2144 5.87109 11.149 5.97705C11.0836 6.08301 10.99 6.16869 10.8787 6.22452L0.9725 11.1783C0.870197 11.2294 0.756532 11.2535 0.642287 11.2484C0.528043 11.2432 0.417008 11.209 0.319716 11.1489C0.222423 11.0888 0.1421 11.0048 0.0863647 10.9049C0.0306298 10.8051 0.00133187 10.6926 0.00125006 10.5783V6.29577L6.72625 5.63077H6.72563Z" fill="#3264FF"/>
</svg>
