<svg xmlns="http://www.w3.org/2000/svg" width="29" height="29" fill="none"><path fill="#fff" d="M14.5 2.417a4.833 4.833 0 1 0 0 9.666 4.833 4.833 0 0 0 0-9.666ZM12.083 7.25a2.417 2.417 0 1 1 4.834 0 2.417 2.417 0 0 1-4.834 0Zm8.459 7.25H8.458a3.625 3.625 0 0 0-3.625 3.625c0 2.697 1.11 4.858 2.93 6.32 1.79 1.438 4.192 2.138 6.737 2.138s4.947-.7 6.738-2.138c1.817-1.462 2.929-3.623 2.929-6.32a3.625 3.625 0 0 0-3.625-3.625ZM8.458 16.917h12.084a1.208 1.208 0 0 1 1.208 1.208c0 1.974-.785 3.439-2.025 4.434-1.271 1.02-3.098 1.608-5.225 1.608s-3.954-.588-5.225-1.608c-1.24-.995-2.025-2.46-2.025-4.434a1.208 1.208 0 0 1 1.208-1.208Z"/></svg>