  <svg width="29" height="24" viewBox="0 0 20 25" fill="none" xmlns="http://www.w3.org/2000/svg">
  <path d="M10 0C8.67392 0 7.40215 0.526784 6.46447 1.46447C5.52678 2.40215 5 3.67392 5 5C5 6.32608 5.52678 7.59785 6.46447 8.53553C7.40215 9.47322 8.67392 10 10 10C11.3261 10 12.5979 9.47322 13.5355 8.53553C14.4732 7.59785 15 6.32608 15 5C15 3.67392 14.4732 2.40215 13.5355 1.46447C12.5979 0.526784 11.3261 0 10 0ZM16.25 12.5H3.75C2.75544 12.5 1.80161 12.8951 1.09835 13.5983C0.395088 14.3016 0 15.2554 0 16.25C0 19.04 1.1475 21.275 3.03 22.7875C4.8825 24.275 7.3675 25 10 25C12.6325 25 15.1175 24.275 16.97 22.7875C18.85 21.275 20 19.04 20 16.25C20 15.2554 19.6049 14.3016 18.9017 13.5983C18.1984 12.8951 17.2446 12.5 16.25 12.5Z" fill="#3264FF"/>
  </svg>
