<svg width="15" height="30" viewBox="0 0 5 10" fill="none" xmlns="http://www.w3.org/2000/svg">
<path d="M0.134366 0.84313C0.0914454 0.795422 0.057891 0.739302 0.0356186 0.677974C0.0133463 0.616645 0.00279204 0.55131 0.00455913 0.485697C0.00632622 0.420085 0.0203798 0.35548 0.0459174 0.295573C0.0714549 0.235665 0.107976 0.181627 0.153396 0.136544C0.198816 0.0914618 0.252246 0.0562174 0.310634 0.0328233C0.369022 0.00942931 0.431224 -0.0016562 0.493691 0.000199884C0.556158 0.00205597 0.617665 0.0168172 0.6747 0.0436408C0.731736 0.0704645 0.783183 0.108825 0.826104 0.156533L4.86996 4.65389C4.95347 4.74667 5 4.86951 5 4.99719C5 5.12487 4.95347 5.24771 4.86996 5.34049L0.826104 9.83835C0.783466 9.8871 0.73203 9.92647 0.674785 9.95417C0.61754 9.98186 0.555626 9.99733 0.49264 9.99969C0.429653 10.002 0.36685 9.99122 0.307878 9.96786C0.248906 9.9445 0.19494 9.90907 0.149116 9.86362C0.103292 9.81816 0.066522 9.7636 0.0409429 9.7031C0.0153638 9.6426 0.00148507 9.57736 0.000112792 9.51117C-0.00125949 9.44499 0.00990189 9.37918 0.032949 9.31756C0.0559961 9.25595 0.0904694 9.19976 0.134366 9.15225L3.86994 4.99719L0.134366 0.84313Z" fill="#1F46AB"/>
</svg>
