<svg width="36" height="38" viewBox="0 0 36 36" fill="none" xmlns="http://www.w3.org/2000/svg">
<path d="M6 16.5L3 22.5L8.112 24.5445C8.86672 24.8463 9.55225 25.2983 10.127 25.873C10.7017 26.4477 11.1537 27.1333 11.4555 27.888L13.5 33L19.5 30L17.685 26.37C17.3573 25.7158 17.28 24.9645 17.4675 24.2573C17.6551 23.5501 18.0947 22.9358 18.7035 22.53L21 21L27 31.5L31.5 25.5L28.065 14.2965L29.1375 13.2255C31.2555 11.1075 33.2025 7.7025 30.75 5.25C28.2975 2.7975 24.885 4.74 22.776 6.8655L21.696 7.9275L10.5 4.5L4.5 9L15 15L13.47 17.2965C13.0645 17.9056 12.4503 18.3454 11.7431 18.5333C11.0358 18.7212 10.2843 18.6441 9.63 18.3165L6 16.5Z" stroke="#A8B2FF" stroke-width="3" stroke-linecap="round" stroke-linejoin="round"/>
</svg>
