<svg width="13" height="13" viewBox="0 0 13 13" fill="none" xmlns="http://www.w3.org/2000/svg">
<path d="M12.0383 11.3758C12.0844 11.4187 12.1213 11.4705 12.1469 11.528C12.1725 11.5855 12.1863 11.6475 12.1874 11.7105C12.1885 11.7734 12.177 11.8359 12.1534 11.8943C12.1298 11.9527 12.0947 12.0057 12.0502 12.0502C12.0057 12.0947 11.9527 12.1298 11.8943 12.1534C11.8359 12.177 11.7734 12.1885 11.7105 12.1874C11.6475 12.1863 11.5855 12.1725 11.528 12.1469C11.4705 12.1213 11.4187 12.0844 11.3758 12.0383L6.08206 6.74534L0.788307 12.0383C0.699448 12.1211 0.581919 12.1662 0.460481 12.164C0.339043 12.1619 0.223177 12.1127 0.137294 12.0268C0.0514105 11.9409 0.00221566 11.8251 7.30296e-05 11.7036C-0.00206961 11.5822 0.0430072 11.4647 0.125807 11.3758L5.41878 6.08206L0.125807 0.788307C0.0430072 0.699448 -0.00206961 0.581919 7.30296e-05 0.460481C0.00221566 0.339043 0.0514105 0.223177 0.137294 0.137294C0.223177 0.0514105 0.339043 0.00221566 0.460481 7.30296e-05C0.581919 -0.00206961 0.699448 0.0430072 0.788307 0.125807L6.08206 5.41878L11.3758 0.125807C11.4647 0.0430072 11.5822 -0.00206961 11.7036 7.30296e-05C11.8251 0.00221566 11.9409 0.0514105 12.0268 0.137294C12.1127 0.223177 12.1619 0.339043 12.164 0.460481C12.1662 0.581919 12.1211 0.699448 12.0383 0.788307L6.74534 6.08206L12.0383 11.3758Z" fill="#3264FF"/>
</svg>
