<svg width="21" height="20" viewBox="0 0 21 20" fill="none" xmlns="http://www.w3.org/2000/svg">
<path d="M8.96678 16.53C7.85904 16.5312 6.76195 16.3185 5.73841 15.904C4.71487 15.4896 3.785 14.8817 3.00211 14.115C1.40745 12.555 0.533447 10.485 0.533447 8.28C0.533447 6.075 1.40745 4.005 3.00211 2.445C6.28345 -0.765002 11.6348 -0.765002 14.9314 2.445C16.5261 4.005 17.4001 6.075 17.4001 8.28C17.4001 10.485 16.5261 12.555 14.9314 14.115C14.1486 14.8817 13.2187 15.4896 12.1952 15.904C11.1716 16.3185 10.0745 16.5312 8.96678 16.53ZM8.96678 1.53C7.20345 1.53 5.44011 2.19 4.09078 3.51C2.78745 4.785 2.06678 6.48 2.06678 8.28C2.06678 10.08 2.78745 11.775 4.09078 13.05C5.38632 14.3108 7.13939 15.0185 8.96678 15.0185C10.7942 15.0185 12.5472 14.3108 13.8428 13.05C15.1461 11.775 15.8668 10.08 15.8668 8.28C15.8668 6.48 15.1461 4.785 13.8428 3.51C13.2035 2.88189 12.4436 2.38361 11.6068 2.0438C10.77 1.704 9.87281 1.52939 8.96678 1.53Z" fill="#3264FF"/>
<path d="M19.7001 19.5C19.5995 19.5012 19.4998 19.4818 19.4074 19.4431C19.315 19.4043 19.2319 19.3471 19.1634 19.275L13.9807 14.205C13.6741 13.905 13.6741 13.44 13.9807 13.14C14.2874 12.84 14.7627 12.84 15.0694 13.14L20.2521 18.21C20.5587 18.51 20.5587 18.975 20.2521 19.275C20.0987 19.425 19.8994 19.5 19.7154 19.5H19.7001Z" fill="#3264FF"/>
</svg>
