<svg xmlns="http://www.w3.org/2000/svg" width="24" height="24" fill="none"><path fill="#000" d="M9.967 19.53a8.579 8.579 0 0 1-3.229-.626 8.432 8.432 0 0 1-2.736-1.789 8.102 8.102 0 0 1-2.469-5.835c0-2.205.874-4.275 2.469-5.835 3.281-3.21 8.633-3.21 11.93 0A8.102 8.102 0 0 1 18.4 11.28a8.102 8.102 0 0 1-2.469 5.835 8.431 8.431 0 0 1-2.736 1.789 8.578 8.578 0 0 1-3.228.626Zm0-15a6.95 6.95 0 0 0-4.876 1.98 6.634 6.634 0 0 0-2.024 4.77c0 1.8.72 3.495 2.024 4.77a6.993 6.993 0 0 0 4.876 1.968c1.827 0 3.58-.707 4.876-1.968a6.634 6.634 0 0 0 2.024-4.77c0-1.8-.721-3.495-2.024-4.77a6.886 6.886 0 0 0-2.236-1.466 7.006 7.006 0 0 0-2.64-.514Z"/><path fill="#000" d="M20.7 22.5a.736.736 0 0 1-.537-.225l-5.182-5.07a.731.731 0 0 1 0-1.065.77.77 0 0 1 1.088 0l5.183 5.07a.73.73 0 0 1 0 1.065.779.779 0 0 1-.537.225H20.7Z"/></svg>