<svg xmlns="http://www.w3.org/2000/svg" width="20" height="20" fill="none"><g clip-path="url(#a)"><path fill="#A6A6A6" d="m8.858 7.5 2.642 2.633V10A2.5 2.5 0 0 0 9 7.5h-.142Zm-3.583.667 1.292 1.291c-.042.175-.067.35-.067.542A2.5 2.5 0 0 0 9 12.5c.183 0 .367-.025.542-.067l1.291 1.292A4.131 4.131 0 0 1 9 14.167 4.167 4.167 0 0 1 4.833 10c0-.658.167-1.275.442-1.833ZM.667 3.558l1.9 1.9.375.375A9.86 9.86 0 0 0-.167 10c1.442 3.658 5 6.25 9.167 6.25 1.292 0 2.525-.25 3.65-.7l.358.35 2.434 2.433 1.058-1.058L1.725 2.5M9 5.833A4.167 4.167 0 0 1 13.167 10c0 .533-.109 1.05-.3 1.517l2.441 2.441A9.869 9.869 0 0 0 18.167 10c-1.442-3.658-5-6.25-9.167-6.25a9.872 9.872 0 0 0-3.333.583l1.808 1.792A4.208 4.208 0 0 1 9 5.833Z"/></g><defs><clipPath id="a"><path fill="#fff" d="M0 0h20v20H0z"/></clipPath></defs></svg>