<svg xmlns="http://www.w3.org/2000/svg" width="40" height="38" fill="none"><g stroke="#A8B2FF" stroke-miterlimit="10" stroke-width="3.125" clip-path="url(#a)"><path d="M27.168 10.836a3.466 3.466 0 0 1-.18-4.707.287.287 0 0 0-.016-.39l-3.275-3.28a.289.289 0 0 0-.409 0l-5.22 5.221a1.754 1.754 0 0 0-.424.686 1.755 1.755 0 0 1-1.11 1.113 1.759 1.759 0 0 0-.686.424L2.46 23.288a.289.289 0 0 0 0 .409l3.275 3.275a.287.287 0 0 0 .39.016 3.465 3.465 0 0 1 4.887 4.887.287.287 0 0 0 .016.39l3.275 3.275a.289.289 0 0 0 .409 0L28.1 22.152c.192-.193.337-.428.424-.687a1.757 1.757 0 0 1 1.11-1.113c.257-.086.492-.23.685-.424l5.22-5.22a.289.289 0 0 0 0-.408l-3.275-3.276a.287.287 0 0 0-.39-.016 3.466 3.466 0 0 1-4.707-.172Z"/><path stroke-linecap="round" d="m18.592 10.423-1.226-1.225m4.493 4.492-.817-.816m4.084 4.084-.816-.817m4.492 4.493-1.225-1.226"/></g><defs><clipPath id="a"><path fill="#fff" d="M0 0h38v38H0z"/></clipPath></defs></svg>